{"asset":{"generator":"glTF-Transform v3.5.1","version":"2.0"},"accessors":[{"type":"SCALAR","componentType":5125,"count":9048,"bufferView":0,"byteOffset":0},{"type":"SCALAR","componentType":5125,"count":8112,"bufferView":0,"byteOffset":36192},{"type":"VEC3","componentType":5126,"count":2286,"max":[0.008809226565063,0.04250537231564522,0.0006538566667586565],"min":[-0.008809131570160389,0.02488701231777668,-0.0017250754171982408],"bufferView":1,"byteOffset":0},{"type":"VEC3","componentType":5126,"count":2286,"bufferView":1,"byteOffset":12},{"type":"VEC2","componentType":5126,"count":2286,"bufferView":1,"byteOffset":24},{"type":"VEC3","componentType":5126,"count":2050,"max":[0.07620161026716232,0.033696193248033524,0.0017250754171982408],"min":[-0.07620161026716232,-0.04250537231564522,-0.0017250754171982408],"bufferView":2,"byteOffset":0},{"type":"VEC3","componentType":5126,"count":2050,"bufferView":2,"byteOffset":12},{"type":"VEC2","componentType":5126,"count":2050,"bufferView":2,"byteOffset":24}],"bufferViews":[{"buffer":0,"byteOffset":0,"byteLength":68640,"target":34963},{"buffer":0,"byteOffset":68640,"byteLength":73152,"byteStride":32,"target":34962},{"buffer":0,"byteOffset":141792,"byteLength":65600,"byteStride":32,"target":34962}],"buffers":[{"uri":"ok.bin","byteLength":207392}],"materials":[{"doubleSided":true,"pbrMetallicRoughness":{"baseColorFactor":[0.9999999403953552,0.5390625,0.1171875074505806,1],"roughnessFactor":0.4000000059604645,"metallicFactor":0}},{"doubleSided":true,"pbrMetallicRoughness":{"baseColorFactor":[0.8359375,0.8359375,0.8359375,1],"roughnessFactor":0.4000000059604645,"metallicFactor":0}}],"meshes":[{"primitives":[{"attributes":{"NORMAL":3,"POSITION":2,"TEXCOORD_0":4},"mode":4,"material":0,"indices":0}]},{"primitives":[{"attributes":{"NORMAL":6,"POSITION":5,"TEXCOORD_0":7},"mode":4,"material":1,"indices":1}]}],"nodes":[{"mesh":0},{"mesh":1}],"scenes":[{"nodes":[0,1]}]}