{"asset":{"generator":"glTF-Transform v3.5.1","version":"2.0"},"accessors":[{"type":"SCALAR","componentType":5125,"count":7566,"bufferView":0,"byteOffset":0},{"type":"VEC3","componentType":5126,"count":1501,"max":[0.005359308328479528,0.004795410204678774,0.0013032255228608847],"min":[-0.005359308328479528,-0.004795410204678774,-0.0013032255228608847],"bufferView":1,"byteOffset":0},{"type":"VEC3","componentType":5126,"count":1501,"bufferView":1,"byteOffset":12},{"type":"VEC2","componentType":5126,"count":1501,"bufferView":1,"byteOffset":24}],"bufferViews":[{"buffer":0,"byteOffset":0,"byteLength":30264,"target":34963},{"buffer":0,"byteOffset":30264,"byteLength":48032,"byteStride":32,"target":34962}],"buffers":[{"uri":"ok.bin","byteLength":78296}],"materials":[{"doubleSided":true,"pbrMetallicRoughness":{"baseColorFactor":[0.9999999403953552,0.5390625,0.1171875074505806,1],"roughnessFactor":0.4000000059604645,"metallicFactor":0}}],"meshes":[{"primitives":[{"attributes":{"NORMAL":2,"POSITION":1,"TEXCOORD_0":3},"mode":4,"material":0,"indices":0}]}],"nodes":[{"mesh":0}],"scenes":[{"nodes":[0]}]}