{"asset":{"generator":"glTF-Transform v3.5.1","version":"2.0"},"accessors":[{"type":"SCALAR","componentType":5125,"count":2664,"bufferView":0,"byteOffset":0},{"type":"SCALAR","componentType":5125,"count":4188,"bufferView":0,"byteOffset":10656},{"type":"SCALAR","componentType":5125,"count":11808,"bufferView":0,"byteOffset":27408},{"type":"SCALAR","componentType":5125,"count":5892,"bufferView":0,"byteOffset":74640},{"type":"VEC3","componentType":5126,"count":692,"max":[0.13963958621025085,-0.07713214308023453,0.010132706724107265],"min":[0.04687934368848801,-0.20650634169578552,-0.015486212447285652],"bufferView":1,"byteOffset":0},{"type":"VEC3","componentType":5126,"count":692,"bufferView":1,"byteOffset":12},{"type":"VEC2","componentType":5126,"count":692,"bufferView":1,"byteOffset":24},{"type":"VEC3","componentType":5126,"count":1152,"max":[-0.008674467913806438,0.20344313979148865,0.008079398423433304],"min":[-0.017478959634900093,0.19463858008384705,-0.015486212447285652],"bufferView":2,"byteOffset":0},{"type":"VEC3","componentType":5126,"count":1152,"bufferView":2,"byteOffset":12},{"type":"VEC2","componentType":5126,"count":1152,"bufferView":2,"byteOffset":24},{"type":"VEC3","componentType":5126,"count":3004,"max":[-0.006578764412552118,0.20553874969482422,0.008138044737279415],"min":[-0.019574563950300217,0.19254297018051147,-0.015486212447285652],"bufferView":3,"byteOffset":0},{"type":"VEC3","componentType":5126,"count":3004,"bufferView":3,"byteOffset":12},{"type":"VEC2","componentType":5126,"count":3004,"bufferView":3,"byteOffset":24},{"type":"VEC3","componentType":5126,"count":1569,"max":[0.14930179715156555,0.2190224677324295,0.015486212447285652],"min":[-0.14930179715156555,-0.2190224677324295,-0.015486212447285652],"bufferView":4,"byteOffset":0},{"type":"VEC3","componentType":5126,"count":1569,"bufferView":4,"byteOffset":12},{"type":"VEC2","componentType":5126,"count":1569,"bufferView":4,"byteOffset":24}],"bufferViews":[{"buffer":0,"byteOffset":0,"byteLength":98208,"target":34963},{"buffer":0,"byteOffset":98208,"byteLength":22144,"byteStride":32,"target":34962},{"buffer":0,"byteOffset":120352,"byteLength":36864,"byteStride":32,"target":34962},{"buffer":0,"byteOffset":157216,"byteLength":96128,"byteStride":32,"target":34962},{"buffer":0,"byteOffset":253344,"byteLength":50208,"byteStride":32,"target":34962}],"samplers":[{"magFilter":9729,"minFilter":9729,"wrapS":10497,"wrapT":10497}],"textures":[{"source":0,"sampler":0},{"source":1,"sampler":0}],"images":[{"name":"BaseColor","mimeType":"image/png","uri":"baseColor_1.png"},{"name":"BaseColor","mimeType":"image/png","uri":"baseColor_2.png"}],"buffers":[{"uri":"ok.bin","byteLength":303552}],"materials":[{"doubleSided":true,"pbrMetallicRoughness":{"roughnessFactor":0.4000000059604645,"metallicFactor":0,"baseColorTexture":{"index":0}}},{"doubleSided":true,"pbrMetallicRoughness":{"baseColorFactor":[0,0,0,1],"roughnessFactor":0.4000000059604645,"metallicFactor":0}},{"doubleSided":true,"pbrMetallicRoughness":{"baseColorFactor":[0.9999999403953552,0.5390625,0.1171875074505806,1],"roughnessFactor":0.4000000059604645,"metallicFactor":0}},{"doubleSided":true,"pbrMetallicRoughness":{"roughnessFactor":0.4000000059604645,"metallicFactor":0,"baseColorTexture":{"index":1}}}],"meshes":[{"primitives":[{"attributes":{"NORMAL":5,"POSITION":4,"TEXCOORD_0":6},"mode":4,"material":0,"indices":0}]},{"primitives":[{"attributes":{"NORMAL":8,"POSITION":7,"TEXCOORD_0":9},"mode":4,"material":1,"indices":1}]},{"primitives":[{"attributes":{"NORMAL":11,"POSITION":10,"TEXCOORD_0":12},"mode":4,"material":2,"indices":2}]},{"primitives":[{"attributes":{"NORMAL":14,"POSITION":13,"TEXCOORD_0":15},"mode":4,"material":3,"indices":3}]}],"nodes":[{"mesh":0},{"mesh":1},{"mesh":2},{"mesh":3}],"scenes":[{"nodes":[0,1,2,3]}]}