{"asset":{"generator":"glTF-Transform v3.5.1","version":"2.0"},"accessors":[{"type":"SCALAR","componentType":5125,"count":198,"bufferView":0,"byteOffset":0},{"type":"SCALAR","componentType":5125,"count":16188,"bufferView":0,"byteOffset":792},{"type":"SCALAR","componentType":5125,"count":16188,"bufferView":0,"byteOffset":65544},{"type":"SCALAR","componentType":5125,"count":20244,"bufferView":0,"byteOffset":130296},{"type":"SCALAR","componentType":5125,"count":21180,"bufferView":0,"byteOffset":211272},{"type":"SCALAR","componentType":5125,"count":15720,"bufferView":0,"byteOffset":295992},{"type":"SCALAR","componentType":5125,"count":5424,"bufferView":0,"byteOffset":358872},{"type":"SCALAR","componentType":5125,"count":5892,"bufferView":0,"byteOffset":380568},{"type":"SCALAR","componentType":5125,"count":5424,"bufferView":0,"byteOffset":404136},{"type":"SCALAR","componentType":5125,"count":5424,"bufferView":0,"byteOffset":425832},{"type":"SCALAR","componentType":5125,"count":5424,"bufferView":0,"byteOffset":447528},{"type":"SCALAR","componentType":5125,"count":5736,"bufferView":0,"byteOffset":469224},{"type":"SCALAR","componentType":5125,"count":31980,"bufferView":0,"byteOffset":492168},{"type":"SCALAR","componentType":5125,"count":23640,"bufferView":0,"byteOffset":620088},{"type":"SCALAR","componentType":5125,"count":20946,"bufferView":0,"byteOffset":714648},{"type":"SCALAR","componentType":5125,"count":1092,"bufferView":0,"byteOffset":798432},{"type":"SCALAR","componentType":5125,"count":38754,"bufferView":0,"byteOffset":802800},{"type":"SCALAR","componentType":5125,"count":35646,"bufferView":0,"byteOffset":957816},{"type":"SCALAR","componentType":5125,"count":28032,"bufferView":0,"byteOffset":1100400},{"type":"SCALAR","componentType":5125,"count":33492,"bufferView":0,"byteOffset":1212528},{"type":"SCALAR","componentType":5125,"count":50790,"bufferView":0,"byteOffset":1346496},{"type":"SCALAR","componentType":5125,"count":115296,"bufferView":0,"byteOffset":1549656},{"type":"VEC3","componentType":5126,"count":58,"max":[0.06760810315608978,-0.03665405139327049,0.0025075494777411222],"min":[0.05804482102394104,-0.05043686181306839,-0.0033872013445943594],"bufferView":1,"byteOffset":0},{"type":"VEC3","componentType":5126,"count":58,"bufferView":1,"byteOffset":12},{"type":"VEC2","componentType":5126,"count":58,"bufferView":1,"byteOffset":24},{"type":"VEC3","componentType":5126,"count":3122,"max":[-0.06465081870555878,-0.040354035794734955,0.0025223621632903814],"min":[-0.07348219305276871,-0.04984258487820625,-0.0033872013445943594],"bufferView":2,"byteOffset":0},{"type":"VEC3","componentType":5126,"count":3122,"bufferView":2,"byteOffset":12},{"type":"VEC2","componentType":5126,"count":3122,"bufferView":2,"byteOffset":24},{"type":"VEC3","componentType":5126,"count":3122,"max":[-0.05410148948431015,-0.032945748418569565,0.0025335897225886583],"min":[-0.06481429934501648,-0.04468309506773949,-0.0033872013445943594],"bufferView":3,"byteOffset":0},{"type":"VEC3","componentType":5126,"count":3122,"bufferView":3,"byteOffset":12},{"type":"VEC2","componentType":5126,"count":3122,"bufferView":3,"byteOffset":24},{"type":"VEC3","componentType":5126,"count":3904,"max":[0.0036712184082716703,-0.06627514213323593,0.0025448682717978954],"min":[-0.007440770976245403,-0.07723584026098251,-0.0033872013445943594],"bufferView":4,"byteOffset":0},{"type":"VEC3","componentType":5126,"count":3904,"bufferView":4,"byteOffset":12},{"type":"VEC2","componentType":5126,"count":3904,"bufferView":4,"byteOffset":24},{"type":"VEC3","componentType":5126,"count":4084,"max":[-0.07515092194080353,-0.0008372929878532887,0.002544885268434882],"min":[-0.08615211397409439,-0.011953535489737988,-0.0033872013445943594],"bufferView":5,"byteOffset":0},{"type":"VEC3","componentType":5126,"count":4084,"bufferView":5,"byteOffset":12},{"type":"VEC2","componentType":5126,"count":4084,"bufferView":5,"byteOffset":24},{"type":"VEC3","componentType":5126,"count":3032,"max":[-0.05331337824463844,0.05186710134148598,0.002557360101491213],"min":[-0.07186984270811081,0.03561491146683693,-0.0033872013445943594],"bufferView":6,"byteOffset":0},{"type":"VEC3","componentType":5126,"count":3032,"bufferView":6,"byteOffset":12},{"type":"VEC2","componentType":5126,"count":3032,"bufferView":6,"byteOffset":24},{"type":"VEC3","componentType":5126,"count":1082,"max":[-0.017650684341788292,0.08503930270671844,0.0024889176711440086],"min":[-0.03196640685200691,0.060502879321575165,-0.0033872013445943594],"bufferView":7,"byteOffset":0},{"type":"VEC3","componentType":5126,"count":1082,"bufferView":7,"byteOffset":12},{"type":"VEC2","componentType":5126,"count":1082,"bufferView":7,"byteOffset":24},{"type":"VEC3","componentType":5126,"count":1172,"max":[-0.028168456628918648,0.07919953763484955,0.0024889346677809954],"min":[-0.0450248047709465,0.05592910200357437,-0.0033872013445943594],"bufferView":8,"byteOffset":0},{"type":"VEC3","componentType":5126,"count":1172,"bufferView":8,"byteOffset":12},{"type":"VEC2","componentType":5126,"count":1172,"bufferView":8,"byteOffset":24},{"type":"VEC3","componentType":5126,"count":1082,"max":[-0.05856611207127571,0.0347319096326828,0.002488931640982628],"min":[-0.08269384503364563,0.02288237400352955,-0.0033872013445943594],"bufferView":9,"byteOffset":0},{"type":"VEC3","componentType":5126,"count":1082,"bufferView":9,"byteOffset":12},{"type":"VEC2","componentType":5126,"count":1082,"bufferView":9,"byteOffset":24},{"type":"VEC3","componentType":5126,"count":1082,"max":[0.06354852765798569,0.0640062466263771,0.00249300803989172],"min":[0.04410256817936897,0.044060591608285904,-0.0033872013445943594],"bufferView":10,"byteOffset":0},{"type":"VEC3","componentType":5126,"count":1082,"bufferView":10,"byteOffset":12},{"type":"VEC2","componentType":5126,"count":1082,"bufferView":10,"byteOffset":24},{"type":"VEC3","componentType":5126,"count":1082,"max":[0.0076740398071706295,0.08865487575531006,0.0024915437679737806],"min":[-0.0010986195411533117,0.06369952112436295,-0.0033872013445943594],"bufferView":11,"byteOffset":0},{"type":"VEC3","componentType":5126,"count":1082,"bufferView":11,"byteOffset":12},{"type":"VEC2","componentType":5126,"count":1082,"bufferView":11,"byteOffset":24},{"type":"VEC3","componentType":5126,"count":1150,"max":[-0.02687392570078373,-0.05656381696462631,0.002491181483492255],"min":[-0.05088173970580101,-0.0816975086927414,-0.0033872013445943594],"bufferView":12,"byteOffset":0},{"type":"VEC3","componentType":5126,"count":1150,"bufferView":12,"byteOffset":12},{"type":"VEC2","componentType":5126,"count":1150,"bufferView":12,"byteOffset":24},{"type":"VEC3","componentType":5126,"count":6162,"max":[-0.05028832331299782,0.05497723072767258,0.002488952362909913],"min":[-0.07489358633756638,0.032503508031368256,-0.0033872013445943594],"bufferView":13,"byteOffset":0},{"type":"VEC3","componentType":5126,"count":6162,"bufferView":13,"byteOffset":12},{"type":"VEC2","componentType":5126,"count":6162,"bufferView":13,"byteOffset":24},{"type":"VEC3","componentType":5126,"count":4586,"max":[0.08399821817874908,0.037930190563201904,0.0024923565797507763],"min":[0.0561886690557003,0.015772338956594467,-0.0033872013445943594],"bufferView":14,"byteOffset":0},{"type":"VEC3","componentType":5126,"count":4586,"bufferView":14,"byteOffset":12},{"type":"VEC2","componentType":5126,"count":4586,"bufferView":14,"byteOffset":24},{"type":"VEC3","componentType":5126,"count":4065,"max":[0.031215013936161995,0.0861193835735321,0.0024923295713961124],"min":[0.00905624870210886,0.05919118598103523,-0.0033872013445943594],"bufferView":15,"byteOffset":0},{"type":"VEC3","componentType":5126,"count":4065,"bufferView":15,"byteOffset":12},{"type":"VEC2","componentType":5126,"count":4065,"bufferView":15,"byteOffset":24},{"type":"VEC3","componentType":5126,"count":279,"max":[0.07129745930433273,-0.0322917215526104,0.002488944213837385],"min":[0.04905009642243385,-0.05566506087779999,-0.0033872013445943594],"bufferView":16,"byteOffset":0},{"type":"VEC3","componentType":5126,"count":279,"bufferView":16,"byteOffset":12},{"type":"VEC2","componentType":5126,"count":279,"bufferView":16,"byteOffset":24},{"type":"VEC3","componentType":5126,"count":7481,"max":[0.007167738396674395,-0.06339818984270096,0.002489122562110424],"min":[-0.010681924410164356,-0.08924639970064163,-0.0033872013445943594],"bufferView":17,"byteOffset":0},{"type":"VEC3","componentType":5126,"count":7481,"bufferView":17,"byteOffset":12},{"type":"VEC2","componentType":5126,"count":7481,"bufferView":17,"byteOffset":24},{"type":"VEC3","componentType":5126,"count":6883,"max":[-0.06317853182554245,0.003169540548697114,0.002489120466634631],"min":[-0.0890326127409935,-0.01516902819275856,-0.0033872013445943594],"bufferView":18,"byteOffset":0},{"type":"VEC3","componentType":5126,"count":6883,"bufferView":18,"byteOffset":12},{"type":"VEC2","componentType":5126,"count":6883,"bufferView":18,"byteOffset":24},{"type":"VEC3","componentType":5126,"count":5443,"max":[0.04584081843495369,-0.055261947214603424,0.0024898136034607887],"min":[0.02397141419351101,-0.08252624422311783,-0.0033872013445943594],"bufferView":19,"byteOffset":0},{"type":"VEC3","componentType":5126,"count":5443,"bufferView":19,"byteOffset":12},{"type":"VEC2","componentType":5126,"count":5443,"bufferView":19,"byteOffset":24},{"type":"VEC3","componentType":5126,"count":6492,"max":[0.08878164738416672,0.001312547130510211,0.002489803358912468],"min":[0.06289267539978027,-0.017600730061531067,-0.0033872013445943594],"bufferView":20,"byteOffset":0},{"type":"VEC3","componentType":5126,"count":6492,"bufferView":20,"byteOffset":12},{"type":"VEC2","componentType":5126,"count":6492,"bufferView":20,"byteOffset":24},{"type":"VEC3","componentType":5126,"count":9796,"max":[-0.051029957830905914,-0.029719900339841843,0.002491861814633012],"min":[-0.07648199796676636,-0.052990078926086426,-0.0033872013445943594],"bufferView":21,"byteOffset":0},{"type":"VEC3","componentType":5126,"count":9796,"bufferView":21,"byteOffset":12},{"type":"VEC2","componentType":5126,"count":9796,"bufferView":21,"byteOffset":24},{"type":"VEC3","componentType":5126,"count":22677,"max":[0.09622617065906525,0.09622617065906525,0.0033872013445943594],"min":[-0.09622617065906525,-0.09622617065906525,-0.0033872013445943594],"bufferView":22,"byteOffset":0},{"type":"VEC3","componentType":5126,"count":22677,"bufferView":22,"byteOffset":12},{"type":"VEC2","componentType":5126,"count":22677,"bufferView":22,"byteOffset":24}],"bufferViews":[{"buffer":0,"byteOffset":0,"byteLength":2010840,"target":34963},{"buffer":0,"byteOffset":2010840,"byteLength":1856,"byteStride":32,"target":34962},{"buffer":0,"byteOffset":2012696,"byteLength":99904,"byteStride":32,"target":34962},{"buffer":0,"byteOffset":2112600,"byteLength":99904,"byteStride":32,"target":34962},{"buffer":0,"byteOffset":2212504,"byteLength":124928,"byteStride":32,"target":34962},{"buffer":0,"byteOffset":2337432,"byteLength":130688,"byteStride":32,"target":34962},{"buffer":0,"byteOffset":2468120,"byteLength":97024,"byteStride":32,"target":34962},{"buffer":0,"byteOffset":2565144,"byteLength":34624,"byteStride":32,"target":34962},{"buffer":0,"byteOffset":2599768,"byteLength":37504,"byteStride":32,"target":34962},{"buffer":0,"byteOffset":2637272,"byteLength":34624,"byteStride":32,"target":34962},{"buffer":0,"byteOffset":2671896,"byteLength":34624,"byteStride":32,"target":34962},{"buffer":0,"byteOffset":2706520,"byteLength":34624,"byteStride":32,"target":34962},{"buffer":0,"byteOffset":2741144,"byteLength":36800,"byteStride":32,"target":34962},{"buffer":0,"byteOffset":2777944,"byteLength":197184,"byteStride":32,"target":34962},{"buffer":0,"byteOffset":2975128,"byteLength":146752,"byteStride":32,"target":34962},{"buffer":0,"byteOffset":3121880,"byteLength":130080,"byteStride":32,"target":34962},{"buffer":0,"byteOffset":3251960,"byteLength":8928,"byteStride":32,"target":34962},{"buffer":0,"byteOffset":3260888,"byteLength":239392,"byteStride":32,"target":34962},{"buffer":0,"byteOffset":3500280,"byteLength":220256,"byteStride":32,"target":34962},{"buffer":0,"byteOffset":3720536,"byteLength":174176,"byteStride":32,"target":34962},{"buffer":0,"byteOffset":3894712,"byteLength":207744,"byteStride":32,"target":34962},{"buffer":0,"byteOffset":4102456,"byteLength":313472,"byteStride":32,"target":34962},{"buffer":0,"byteOffset":4415928,"byteLength":725664,"byteStride":32,"target":34962}],"buffers":[{"uri":"ok.bin","byteLength":5141592}],"materials":[{"doubleSided":true,"pbrMetallicRoughness":{"roughnessFactor":0.4000000059604645,"metallicFactor":0}},{"doubleSided":true,"pbrMetallicRoughness":{"roughnessFactor":0.4000000059604645,"metallicFactor":0}},{"doubleSided":true,"pbrMetallicRoughness":{"roughnessFactor":0.4000000059604645,"metallicFactor":0}},{"doubleSided":true,"pbrMetallicRoughness":{"roughnessFactor":0.4000000059604645,"metallicFactor":0}},{"doubleSided":true,"pbrMetallicRoughness":{"roughnessFactor":0.4000000059604645,"metallicFactor":0}},{"doubleSided":true,"pbrMetallicRoughness":{"roughnessFactor":0.4000000059604645,"metallicFactor":0}},{"doubleSided":true,"pbrMetallicRoughness":{"baseColorFactor":[0,0,0,1],"roughnessFactor":0.4000000059604645,"metallicFactor":0}},{"doubleSided":true,"pbrMetallicRoughness":{"baseColorFactor":[0,0,0,1],"roughnessFactor":0.4000000059604645,"metallicFactor":0}},{"doubleSided":true,"pbrMetallicRoughness":{"baseColorFactor":[0,0,0,1],"roughnessFactor":0.4000000059604645,"metallicFactor":0}},{"doubleSided":true,"pbrMetallicRoughness":{"baseColorFactor":[0,0,0,1],"roughnessFactor":0.4000000059604645,"metallicFactor":0}},{"doubleSided":true,"pbrMetallicRoughness":{"baseColorFactor":[0,0,0,1],"roughnessFactor":0.4000000059604645,"metallicFactor":0}},{"doubleSided":true,"pbrMetallicRoughness":{"baseColorFactor":[0,0,0,1],"roughnessFactor":0.4000000059604645,"metallicFactor":0}},{"doubleSided":true,"pbrMetallicRoughness":{"baseColorFactor":[0,0,0,1],"roughnessFactor":0.4000000059604645,"metallicFactor":0}},{"doubleSided":true,"pbrMetallicRoughness":{"baseColorFactor":[0,0,0,1],"roughnessFactor":0.4000000059604645,"metallicFactor":0}},{"doubleSided":true,"pbrMetallicRoughness":{"baseColorFactor":[0,0,0,1],"roughnessFactor":0.4000000059604645,"metallicFactor":0}},{"doubleSided":true,"pbrMetallicRoughness":{"baseColorFactor":[0,0,0,1],"roughnessFactor":0.4000000059604645,"metallicFactor":0}},{"doubleSided":true,"pbrMetallicRoughness":{"baseColorFactor":[0,0,0,1],"roughnessFactor":0.4000000059604645,"metallicFactor":0}},{"doubleSided":true,"pbrMetallicRoughness":{"baseColorFactor":[0,0,0,1],"roughnessFactor":0.4000000059604645,"metallicFactor":0}},{"doubleSided":true,"pbrMetallicRoughness":{"baseColorFactor":[0,0,0,1],"roughnessFactor":0.4000000059604645,"metallicFactor":0}},{"doubleSided":true,"pbrMetallicRoughness":{"baseColorFactor":[0,0,0,1],"roughnessFactor":0.4000000059604645,"metallicFactor":0}},{"doubleSided":true,"pbrMetallicRoughness":{"baseColorFactor":[0,0,0,1],"roughnessFactor":0.4000000059604645,"metallicFactor":0}},{"doubleSided":true,"pbrMetallicRoughness":{"roughnessFactor":0.4000000059604645,"metallicFactor":0}}],"meshes":[{"primitives":[{"attributes":{"NORMAL":23,"POSITION":22,"TEXCOORD_0":24},"mode":4,"material":0,"indices":0}]},{"primitives":[{"attributes":{"NORMAL":26,"POSITION":25,"TEXCOORD_0":27},"mode":4,"material":1,"indices":1}]},{"primitives":[{"attributes":{"NORMAL":29,"POSITION":28,"TEXCOORD_0":30},"mode":4,"material":2,"indices":2}]},{"primitives":[{"attributes":{"NORMAL":32,"POSITION":31,"TEXCOORD_0":33},"mode":4,"material":3,"indices":3}]},{"primitives":[{"attributes":{"NORMAL":35,"POSITION":34,"TEXCOORD_0":36},"mode":4,"material":4,"indices":4}]},{"primitives":[{"attributes":{"NORMAL":38,"POSITION":37,"TEXCOORD_0":39},"mode":4,"material":5,"indices":5}]},{"primitives":[{"attributes":{"NORMAL":41,"POSITION":40,"TEXCOORD_0":42},"mode":4,"material":6,"indices":6}]},{"primitives":[{"attributes":{"NORMAL":44,"POSITION":43,"TEXCOORD_0":45},"mode":4,"material":7,"indices":7}]},{"primitives":[{"attributes":{"NORMAL":47,"POSITION":46,"TEXCOORD_0":48},"mode":4,"material":8,"indices":8}]},{"primitives":[{"attributes":{"NORMAL":50,"POSITION":49,"TEXCOORD_0":51},"mode":4,"material":9,"indices":9}]},{"primitives":[{"attributes":{"NORMAL":53,"POSITION":52,"TEXCOORD_0":54},"mode":4,"material":10,"indices":10}]},{"primitives":[{"attributes":{"NORMAL":56,"POSITION":55,"TEXCOORD_0":57},"mode":4,"material":11,"indices":11}]},{"primitives":[{"attributes":{"NORMAL":59,"POSITION":58,"TEXCOORD_0":60},"mode":4,"material":12,"indices":12}]},{"primitives":[{"attributes":{"NORMAL":62,"POSITION":61,"TEXCOORD_0":63},"mode":4,"material":13,"indices":13}]},{"primitives":[{"attributes":{"NORMAL":65,"POSITION":64,"TEXCOORD_0":66},"mode":4,"material":14,"indices":14}]},{"primitives":[{"attributes":{"NORMAL":68,"POSITION":67,"TEXCOORD_0":69},"mode":4,"material":15,"indices":15}]},{"primitives":[{"attributes":{"NORMAL":71,"POSITION":70,"TEXCOORD_0":72},"mode":4,"material":16,"indices":16}]},{"primitives":[{"attributes":{"NORMAL":74,"POSITION":73,"TEXCOORD_0":75},"mode":4,"material":17,"indices":17}]},{"primitives":[{"attributes":{"NORMAL":77,"POSITION":76,"TEXCOORD_0":78},"mode":4,"material":18,"indices":18}]},{"primitives":[{"attributes":{"NORMAL":80,"POSITION":79,"TEXCOORD_0":81},"mode":4,"material":19,"indices":19}]},{"primitives":[{"attributes":{"NORMAL":83,"POSITION":82,"TEXCOORD_0":84},"mode":4,"material":20,"indices":20}]},{"primitives":[{"attributes":{"NORMAL":86,"POSITION":85,"TEXCOORD_0":87},"mode":4,"material":21,"indices":21}]}],"nodes":[{"mesh":0},{"mesh":1},{"mesh":2},{"mesh":3},{"mesh":4},{"mesh":5},{"mesh":6},{"mesh":7},{"mesh":8},{"mesh":9},{"mesh":10},{"mesh":11},{"mesh":12},{"mesh":13},{"mesh":14},{"mesh":15},{"mesh":16},{"mesh":17},{"mesh":18},{"mesh":19},{"mesh":20},{"mesh":21}],"scenes":[{"nodes":[0,1,2,3,4,5,6,7,8,9,10,11,12,13,14,15,16,17,18,19,20,21]}]}