{"asset":{"generator":"glTF-Transform v3.5.1","version":"2.0"},"accessors":[{"type":"SCALAR","componentType":5125,"count":4596,"bufferView":0,"byteOffset":0},{"type":"SCALAR","componentType":5125,"count":6912,"bufferView":0,"byteOffset":18384},{"type":"VEC3","componentType":5126,"count":1288,"max":[0.0009518914739601314,0.004827344790101051,0.009207933209836483],"min":[-0.0009520091116428375,0.0029234441462904215,-0.009207933209836483],"bufferView":1,"byteOffset":0},{"type":"VEC3","componentType":5126,"count":1288,"bufferView":1,"byteOffset":12},{"type":"VEC2","componentType":5126,"count":1288,"bufferView":1,"byteOffset":24},{"type":"VEC3","componentType":5126,"count":1930,"max":[0.006000010296702385,0.006000010296702385,0.009207933209836483],"min":[-0.006000010296702385,-0.006000010296702385,-0.009207933209836483],"bufferView":2,"byteOffset":0},{"type":"VEC3","componentType":5126,"count":1930,"bufferView":2,"byteOffset":12},{"type":"VEC2","componentType":5126,"count":1930,"bufferView":2,"byteOffset":24}],"bufferViews":[{"buffer":0,"byteOffset":0,"byteLength":46032,"target":34963},{"buffer":0,"byteOffset":46032,"byteLength":41216,"byteStride":32,"target":34962},{"buffer":0,"byteOffset":87248,"byteLength":61760,"byteStride":32,"target":34962}],"buffers":[{"uri":"ok.bin","byteLength":149008}],"materials":[{"doubleSided":true,"pbrMetallicRoughness":{"baseColorFactor":[0.89453125,0.23046875,0.32421875,1],"roughnessFactor":0.4000000059604645,"metallicFactor":0}},{"doubleSided":true,"pbrMetallicRoughness":{"baseColorFactor":[0.62890625,0.62890625,0.62890625,1],"roughnessFactor":0.4000000059604645,"metallicFactor":0}}],"meshes":[{"primitives":[{"attributes":{"NORMAL":3,"POSITION":2,"TEXCOORD_0":4},"mode":4,"material":0,"indices":0}]},{"primitives":[{"attributes":{"NORMAL":6,"POSITION":5,"TEXCOORD_0":7},"mode":4,"material":1,"indices":1}]}],"nodes":[{"mesh":0},{"mesh":1}],"scenes":[{"nodes":[0,1]}]}