{"asset":{"generator":"glTF-Transform v3.5.1","version":"2.0"},"accessors":[{"type":"SCALAR","componentType":5125,"count":9096,"bufferView":0,"byteOffset":0},{"type":"SCALAR","componentType":5125,"count":8292,"bufferView":0,"byteOffset":36384},{"type":"VEC3","componentType":5126,"count":2294,"max":[0.003892822191119194,-0.0023247315548360348,0.0007782220491208136],"min":[-0.0038927244022488594,-0.010110253468155861,-0.0007782220491208136],"bufferView":1,"byteOffset":0},{"type":"VEC3","componentType":5126,"count":2294,"bufferView":1,"byteOffset":12},{"type":"VEC2","componentType":5126,"count":2294,"bufferView":1,"byteOffset":24},{"type":"VEC3","componentType":5126,"count":2170,"max":[0.005221728701144457,0.011553124524652958,0.0007782220491208136],"min":[-0.005221728701144457,-0.011553124524652958,-0.0007782220491208136],"bufferView":2,"byteOffset":0},{"type":"VEC3","componentType":5126,"count":2170,"bufferView":2,"byteOffset":12},{"type":"VEC2","componentType":5126,"count":2170,"bufferView":2,"byteOffset":24}],"bufferViews":[{"buffer":0,"byteOffset":0,"byteLength":69552,"target":34963},{"buffer":0,"byteOffset":69552,"byteLength":73408,"byteStride":32,"target":34962},{"buffer":0,"byteOffset":142960,"byteLength":69440,"byteStride":32,"target":34962}],"buffers":[{"uri":"ok.bin","byteLength":212400}],"materials":[{"doubleSided":true,"pbrMetallicRoughness":{"baseColorFactor":[0.9999999403953552,0.5390625,0.1171875074505806,1],"roughnessFactor":0.4000000059604645,"metallicFactor":0}},{"doubleSided":true,"pbrMetallicRoughness":{"baseColorFactor":[0.59765625,0.59765625,0.59765625,1],"roughnessFactor":0.4000000059604645,"metallicFactor":0}}],"meshes":[{"primitives":[{"attributes":{"NORMAL":3,"POSITION":2,"TEXCOORD_0":4},"mode":4,"material":0,"indices":0}]},{"primitives":[{"attributes":{"NORMAL":6,"POSITION":5,"TEXCOORD_0":7},"mode":4,"material":1,"indices":1}]}],"nodes":[{"mesh":0},{"mesh":1}],"scenes":[{"nodes":[0,1]}]}