{"asset":{"generator":"glTF-Transform v3.5.1","version":"2.0"},"accessors":[{"type":"SCALAR","componentType":5125,"count":16848,"bufferView":0,"byteOffset":0},{"type":"SCALAR","componentType":5125,"count":8400,"bufferView":0,"byteOffset":67392},{"type":"SCALAR","componentType":5125,"count":8688,"bufferView":0,"byteOffset":100992},{"type":"SCALAR","componentType":5125,"count":21480,"bufferView":0,"byteOffset":135744},{"type":"SCALAR","componentType":5125,"count":17712,"bufferView":0,"byteOffset":221664},{"type":"VEC3","componentType":5126,"count":4362,"max":[-0.10883728414773941,-0.13172803819179535,0.004840916488319635],"min":[-0.11693032085895538,-0.13982105255126953,-0.019596675410866737],"bufferView":1,"byteOffset":0},{"type":"VEC3","componentType":5126,"count":4362,"bufferView":1,"byteOffset":12},{"type":"VEC2","componentType":5126,"count":4362,"bufferView":1,"byteOffset":24},{"type":"VEC3","componentType":5126,"count":2290,"max":[-0.12743456661701202,-0.19922775030136108,0.004213845357298851],"min":[-0.13623909652233124,-0.2080322951078415,-0.019596675410866737],"bufferView":2,"byteOffset":0},{"type":"VEC3","componentType":5126,"count":2290,"bufferView":2,"byteOffset":12},{"type":"VEC2","componentType":5126,"count":2290,"bufferView":2,"byteOffset":24},{"type":"VEC3","componentType":5126,"count":2290,"max":[0.13467006385326385,0.20439064502716064,0.019596675410866737],"min":[-0.1346704512834549,-0.20439115166664124,-0.019596675410866737],"bufferView":3,"byteOffset":0},{"type":"VEC3","componentType":5126,"count":2290,"bufferView":3,"byteOffset":12},{"type":"VEC2","componentType":5126,"count":2290,"bufferView":3,"byteOffset":24},{"type":"VEC3","componentType":5126,"count":5628,"max":[-0.12533895671367645,-0.1971321403980255,0.00436506699770689],"min":[-0.1383347064256668,-0.21012791991233826,-0.019596675410866737],"bufferView":4,"byteOffset":0},{"type":"VEC3","componentType":5126,"count":5628,"bufferView":4,"byteOffset":12},{"type":"VEC2","componentType":5126,"count":5628,"bufferView":4,"byteOffset":24},{"type":"VEC3","componentType":5126,"count":4728,"max":[0.14930179715156555,0.21902227401733398,0.005683096591383219],"min":[-0.14930179715156555,-0.21902227401733398,-0.019596675410866737],"bufferView":5,"byteOffset":0},{"type":"VEC3","componentType":5126,"count":4728,"bufferView":5,"byteOffset":12},{"type":"VEC2","componentType":5126,"count":4728,"bufferView":5,"byteOffset":24}],"bufferViews":[{"buffer":0,"byteOffset":0,"byteLength":292512,"target":34963},{"buffer":0,"byteOffset":292512,"byteLength":139584,"byteStride":32,"target":34962},{"buffer":0,"byteOffset":432096,"byteLength":73280,"byteStride":32,"target":34962},{"buffer":0,"byteOffset":505376,"byteLength":73280,"byteStride":32,"target":34962},{"buffer":0,"byteOffset":578656,"byteLength":180096,"byteStride":32,"target":34962},{"buffer":0,"byteOffset":758752,"byteLength":151296,"byteStride":32,"target":34962}],"samplers":[{"magFilter":9729,"minFilter":9729,"wrapS":10497,"wrapT":10497}],"textures":[{"source":0,"sampler":0}],"images":[{"name":"BaseColor","mimeType":"image/png","uri":"baseColor.png"}],"buffers":[{"uri":"ok.bin","byteLength":910048}],"materials":[{"doubleSided":true,"pbrMetallicRoughness":{"baseColorFactor":[0,0,0,1],"roughnessFactor":0.4000000059604645,"metallicFactor":0}},{"doubleSided":true,"pbrMetallicRoughness":{"roughnessFactor":0.4000000059604645,"metallicFactor":0,"baseColorTexture":{"index":0}}},{"doubleSided":true,"pbrMetallicRoughness":{"baseColorFactor":[0.9999999403953552,0.5390625,0.1171875074505806,1],"roughnessFactor":0.4000000059604645,"metallicFactor":0}}],"meshes":[{"primitives":[{"attributes":{"NORMAL":6,"POSITION":5,"TEXCOORD_0":7},"mode":4,"material":0,"indices":0}]},{"primitives":[{"attributes":{"NORMAL":9,"POSITION":8,"TEXCOORD_0":10},"mode":4,"material":0,"indices":1}]},{"primitives":[{"attributes":{"NORMAL":12,"POSITION":11,"TEXCOORD_0":13},"mode":4,"material":1,"indices":2}]},{"primitives":[{"attributes":{"NORMAL":15,"POSITION":14,"TEXCOORD_0":16},"mode":4,"material":2,"indices":3}]},{"primitives":[{"attributes":{"NORMAL":18,"POSITION":17,"TEXCOORD_0":19},"mode":4,"material":0,"indices":4}]}],"nodes":[{"mesh":0},{"mesh":1},{"mesh":2},{"mesh":3},{"mesh":4}],"scenes":[{"nodes":[0,1,2,3,4]}]}