{"asset":{"generator":"glTF-Transform v3.5.1","version":"2.0"},"accessors":[{"type":"SCALAR","componentType":5125,"count":4284,"bufferView":0,"byteOffset":0},{"type":"SCALAR","componentType":5125,"count":11880,"bufferView":0,"byteOffset":17136},{"type":"SCALAR","componentType":5125,"count":3600,"bufferView":0,"byteOffset":64656},{"type":"SCALAR","componentType":5125,"count":3474,"bufferView":0,"byteOffset":79056},{"type":"VEC3","componentType":5126,"count":1168,"max":[-0.23204907774925232,0.02302858792245388,0.013593856245279312],"min":[-0.2375497817993164,0.017527924850583076,-0.027366219088435173],"bufferView":1,"byteOffset":0},{"type":"VEC3","componentType":5126,"count":1168,"bufferView":1,"byteOffset":12},{"type":"VEC2","componentType":5126,"count":1168,"bufferView":1,"byteOffset":24},{"type":"VEC3","componentType":5126,"count":1168,"max":[0.23640866577625275,0.023028595373034477,0.013593795709311962],"min":[0.23090794682502747,0.01752791740000248,-0.027366219088435173],"bufferView":2,"byteOffset":0},{"type":"VEC3","componentType":5126,"count":1168,"bufferView":2,"byteOffset":12},{"type":"VEC3","componentType":5126,"count":1168,"max":[0.04889203980565071,-0.11268393695354462,0.013595039956271648],"min":[0.04339117184281349,-0.11818476021289825,-0.027366219088435173],"bufferView":3,"byteOffset":0},{"type":"VEC3","componentType":5126,"count":1168,"bufferView":3,"byteOffset":12},{"type":"VEC3","componentType":5126,"count":1168,"max":[0.1746813952922821,-0.11268393695354462,0.013595039956271648],"min":[0.16918052732944489,-0.11818476021289825,-0.027366219088435173],"bufferView":4,"byteOffset":0},{"type":"VEC3","componentType":5126,"count":1168,"bufferView":4,"byteOffset":12},{"type":"VEC3","componentType":5126,"count":3016,"max":[-0.23073968291282654,0.02433808520436287,0.013647235929965973],"min":[-0.23885920643806458,0.01621856354176998,-0.027366219088435173],"bufferView":5,"byteOffset":0},{"type":"VEC3","componentType":5126,"count":3016,"bufferView":5,"byteOffset":12},{"type":"VEC2","componentType":5126,"count":3016,"bufferView":5,"byteOffset":24},{"type":"VEC3","componentType":5126,"count":3016,"max":[0.23771806061267853,0.024338094517588615,0.013647331856191158],"min":[0.2295985072851181,0.016218554228544235,-0.027366219088435173],"bufferView":6,"byteOffset":0},{"type":"VEC3","componentType":5126,"count":3016,"bufferView":6,"byteOffset":12},{"type":"VEC3","componentType":5126,"count":3016,"max":[0.050201427191495895,-0.11137446016073227,0.01364794559776783],"min":[0.042081765830516815,-0.11949412524700165,-0.027366219088435173],"bufferView":7,"byteOffset":0},{"type":"VEC3","componentType":5126,"count":3016,"bufferView":7,"byteOffset":12},{"type":"VEC3","componentType":5126,"count":3016,"max":[0.1759907752275467,-0.11137446016073227,0.01364793162792921],"min":[0.1678711175918579,-0.11949411779642105,-0.027366219088435173],"bufferView":8,"byteOffset":0},{"type":"VEC3","componentType":5126,"count":3016,"bufferView":8,"byteOffset":12},{"type":"VEC3","componentType":5126,"count":958,"max":[2.0188281268929131e-7,0.12845440208911896,0.024512754753232002],"min":[-0.24882616102695465,-0.12845449149608612,-0.027366219088435173],"bufferView":9,"byteOffset":0},{"type":"VEC3","componentType":5126,"count":958,"bufferView":9,"byteOffset":12},{"type":"VEC2","componentType":5126,"count":958,"bufferView":9,"byteOffset":24},{"type":"VEC3","componentType":5126,"count":924,"max":[0.24882616102695465,0.12845468521118164,0.027366219088435173],"min":[-0.03075370378792286,-0.12845468521118164,-0.027366219088435173],"bufferView":10,"byteOffset":0},{"type":"VEC3","componentType":5126,"count":924,"bufferView":10,"byteOffset":12},{"type":"VEC2","componentType":5126,"count":924,"bufferView":10,"byteOffset":24}],"bufferViews":[{"buffer":0,"byteOffset":0,"byteLength":92952,"target":34963},{"buffer":0,"byteOffset":92952,"byteLength":37376,"byteStride":32,"target":34962},{"buffer":0,"byteOffset":130328,"byteLength":28032,"byteStride":24,"target":34962},{"buffer":0,"byteOffset":158360,"byteLength":28032,"byteStride":24,"target":34962},{"buffer":0,"byteOffset":186392,"byteLength":28032,"byteStride":24,"target":34962},{"buffer":0,"byteOffset":214424,"byteLength":96512,"byteStride":32,"target":34962},{"buffer":0,"byteOffset":310936,"byteLength":72384,"byteStride":24,"target":34962},{"buffer":0,"byteOffset":383320,"byteLength":72384,"byteStride":24,"target":34962},{"buffer":0,"byteOffset":455704,"byteLength":72384,"byteStride":24,"target":34962},{"buffer":0,"byteOffset":528088,"byteLength":30656,"byteStride":32,"target":34962},{"buffer":0,"byteOffset":558744,"byteLength":29568,"byteStride":32,"target":34962}],"samplers":[{"magFilter":9729,"minFilter":9729,"wrapS":10497,"wrapT":10497}],"textures":[{"source":0,"sampler":0},{"source":1,"sampler":0}],"images":[{"name":"BaseColor","mimeType":"image/png","uri":"baseColor_1.png"},{"name":"BaseColor","mimeType":"image/png","uri":"baseColor_2.png"}],"buffers":[{"uri":"ok.bin","byteLength":588312}],"materials":[{"doubleSided":true,"pbrMetallicRoughness":{"baseColorFactor":[0,0,0,1],"roughnessFactor":0.4000000059604645,"metallicFactor":0}},{"doubleSided":true,"pbrMetallicRoughness":{"baseColorFactor":[0.9999999403953552,0.5390625,0.1171875074505806,1],"roughnessFactor":0.4000000059604645,"metallicFactor":0}},{"doubleSided":true,"pbrMetallicRoughness":{"roughnessFactor":0.4000000059604645,"metallicFactor":0,"baseColorTexture":{"index":0}}},{"doubleSided":true,"pbrMetallicRoughness":{"roughnessFactor":0.4000000059604645,"metallicFactor":0,"baseColorTexture":{"index":1}}}],"meshes":[{"primitives":[{"attributes":{"NORMAL":5,"POSITION":4,"TEXCOORD_0":6},"mode":4,"material":0,"indices":0}]},{"primitives":[{"attributes":{"NORMAL":8,"POSITION":7,"TEXCOORD_0":6},"mode":4,"material":0,"indices":0}]},{"primitives":[{"attributes":{"NORMAL":10,"POSITION":9,"TEXCOORD_0":6},"mode":4,"material":0,"indices":0}]},{"primitives":[{"attributes":{"NORMAL":12,"POSITION":11,"TEXCOORD_0":6},"mode":4,"material":0,"indices":0}]},{"primitives":[{"attributes":{"NORMAL":14,"POSITION":13,"TEXCOORD_0":15},"mode":4,"material":1,"indices":1}]},{"primitives":[{"attributes":{"NORMAL":17,"POSITION":16,"TEXCOORD_0":15},"mode":4,"material":1,"indices":1}]},{"primitives":[{"attributes":{"NORMAL":19,"POSITION":18,"TEXCOORD_0":15},"mode":4,"material":1,"indices":1}]},{"primitives":[{"attributes":{"NORMAL":21,"POSITION":20,"TEXCOORD_0":15},"mode":4,"material":1,"indices":1}]},{"primitives":[{"attributes":{"NORMAL":23,"POSITION":22,"TEXCOORD_0":24},"mode":4,"material":2,"indices":2}]},{"primitives":[{"attributes":{"NORMAL":26,"POSITION":25,"TEXCOORD_0":27},"mode":4,"material":3,"indices":3}]}],"nodes":[{"mesh":0},{"mesh":1},{"mesh":2},{"mesh":3},{"mesh":4},{"mesh":5},{"mesh":6},{"mesh":7},{"mesh":8},{"mesh":9}],"scenes":[{"nodes":[0,1,2,3,4,5,6,7,8,9]}]}