{"asset":{"generator":"glTF-Transform v3.5.1","version":"2.0"},"accessors":[{"type":"SCALAR","componentType":5125,"count":16044,"bufferView":0,"byteOffset":0},{"type":"VEC3","componentType":5126,"count":4470,"max":[0.02020137943327427,0.020060615614056587,0.0020072441548109055],"min":[-0.02020137943327427,-0.020060615614056587,-0.0020072441548109055],"bufferView":1,"byteOffset":0},{"type":"VEC3","componentType":5126,"count":4470,"bufferView":1,"byteOffset":12},{"type":"VEC2","componentType":5126,"count":4470,"bufferView":1,"byteOffset":24}],"bufferViews":[{"buffer":0,"byteOffset":0,"byteLength":64176,"target":34963},{"buffer":0,"byteOffset":64176,"byteLength":143040,"byteStride":32,"target":34962}],"samplers":[{"magFilter":9729,"minFilter":9729,"wrapS":10497,"wrapT":10497}],"textures":[{"source":0,"sampler":0}],"images":[{"name":"BaseColor","mimeType":"image/png","uri":"baseColor.png"}],"buffers":[{"uri":"ok.bin","byteLength":207216}],"materials":[{"doubleSided":true,"pbrMetallicRoughness":{"roughnessFactor":0.4000000059604645,"metallicFactor":0,"baseColorTexture":{"index":0}}}],"meshes":[{"primitives":[{"attributes":{"NORMAL":2,"POSITION":1,"TEXCOORD_0":3},"mode":4,"material":0,"indices":0}]}],"nodes":[{"mesh":0}],"scenes":[{"nodes":[0]}]}