{"asset":{"generator":"glTF-Transform v3.5.1","version":"2.0"},"accessors":[{"type":"SCALAR","componentType":5125,"count":108,"bufferView":0,"byteOffset":0},{"type":"SCALAR","componentType":5125,"count":9252,"bufferView":0,"byteOffset":432},{"type":"VEC3","componentType":5126,"count":48,"max":[0.0017436527414247394,-0.013539891690015793,0.0034655253402888775],"min":[-0.0018376950174570084,-0.024250438436865807,-0.00469184061512351],"bufferView":1,"byteOffset":0},{"type":"VEC3","componentType":5126,"count":48,"bufferView":1,"byteOffset":12},{"type":"VEC2","componentType":5126,"count":48,"bufferView":1,"byteOffset":24},{"type":"VEC3","componentType":5126,"count":2343,"max":[0.024250390008091927,0.024250438436865807,0.00469184061512351],"min":[-0.024250390008091927,-0.024181200191378593,-0.00469184061512351],"bufferView":2,"byteOffset":0},{"type":"VEC3","componentType":5126,"count":2343,"bufferView":2,"byteOffset":12},{"type":"VEC2","componentType":5126,"count":2343,"bufferView":2,"byteOffset":24}],"bufferViews":[{"buffer":0,"byteOffset":0,"byteLength":37440,"target":34963},{"buffer":0,"byteOffset":37440,"byteLength":1536,"byteStride":32,"target":34962},{"buffer":0,"byteOffset":38976,"byteLength":74976,"byteStride":32,"target":34962}],"buffers":[{"uri":"ok.bin","byteLength":113952}],"materials":[{"doubleSided":true,"pbrMetallicRoughness":{"baseColorFactor":[0.484375,0.60546875,0.94140625,1],"roughnessFactor":0.4000000059604645,"metallicFactor":0}},{"doubleSided":true,"pbrMetallicRoughness":{"baseColorFactor":[0.30078125,0.30078125,0.30078125,1],"roughnessFactor":0.4000000059604645,"metallicFactor":0}}],"meshes":[{"primitives":[{"attributes":{"NORMAL":3,"POSITION":2,"TEXCOORD_0":4},"mode":4,"material":0,"indices":0}]},{"primitives":[{"attributes":{"NORMAL":6,"POSITION":5,"TEXCOORD_0":7},"mode":4,"material":1,"indices":1}]}],"nodes":[{"mesh":0},{"mesh":1}],"scenes":[{"nodes":[0,1]}]}