{"asset":{"generator":"glTF-Transform v3.5.1","version":"2.0"},"accessors":[{"type":"SCALAR","componentType":5125,"count":108,"bufferView":0,"byteOffset":0},{"type":"SCALAR","componentType":5125,"count":108,"bufferView":0,"byteOffset":432},{"type":"SCALAR","componentType":5125,"count":108,"bufferView":0,"byteOffset":864},{"type":"SCALAR","componentType":5125,"count":4572,"bufferView":0,"byteOffset":1296},{"type":"SCALAR","componentType":5125,"count":4584,"bufferView":0,"byteOffset":19584},{"type":"SCALAR","componentType":5125,"count":4644,"bufferView":0,"byteOffset":37920},{"type":"SCALAR","componentType":5125,"count":4644,"bufferView":0,"byteOffset":56496},{"type":"SCALAR","componentType":5125,"count":2244,"bufferView":0,"byteOffset":75072},{"type":"SCALAR","componentType":5125,"count":2244,"bufferView":0,"byteOffset":84048},{"type":"SCALAR","componentType":5125,"count":9276,"bufferView":0,"byteOffset":93024},{"type":"SCALAR","componentType":5125,"count":4596,"bufferView":0,"byteOffset":130128},{"type":"SCALAR","componentType":5125,"count":2316,"bufferView":0,"byteOffset":148512},{"type":"SCALAR","componentType":5125,"count":18216,"bufferView":0,"byteOffset":157776},{"type":"SCALAR","componentType":5125,"count":4728,"bufferView":0,"byteOffset":230640},{"type":"SCALAR","componentType":5125,"count":4728,"bufferView":0,"byteOffset":249552},{"type":"SCALAR","componentType":5125,"count":4728,"bufferView":0,"byteOffset":268464},{"type":"SCALAR","componentType":5125,"count":16890,"bufferView":0,"byteOffset":287376},{"type":"VEC3","componentType":5126,"count":48,"max":[-0.09708461165428162,0.0009866468608379364,0.011099845170974731],"min":[-0.09793461114168167,-0.014600462280213833,-0.01300536934286356],"bufferView":1,"byteOffset":0},{"type":"VEC3","componentType":5126,"count":48,"bufferView":1,"byteOffset":12},{"type":"VEC2","componentType":5126,"count":48,"bufferView":1,"byteOffset":24},{"type":"VEC3","componentType":5126,"count":46,"max":[-0.07129213958978653,-0.07129225879907608,0.011630019173026085],"min":[-0.11239955574274063,-0.11189538240432739,-0.01300536934286356],"bufferView":2,"byteOffset":0},{"type":"VEC3","componentType":5126,"count":46,"bufferView":2,"byteOffset":12},{"type":"VEC2","componentType":5126,"count":46,"bufferView":2,"byteOffset":24},{"type":"VEC3","componentType":5126,"count":46,"max":[0.11239955574274063,-0.07129225879907608,0.011630019173026085],"min":[0.07129213958978653,-0.11189538240432739,-0.01300536934286356],"bufferView":3,"byteOffset":0},{"type":"VEC3","componentType":5126,"count":46,"bufferView":3,"byteOffset":12},{"type":"VEC2","componentType":5126,"count":46,"bufferView":3,"byteOffset":24},{"type":"VEC3","componentType":5126,"count":46,"max":[-0.07129211723804474,0.1118953749537468,0.011630029417574406],"min":[-0.11239955574274063,0.0712922140955925,-0.01300536934286356],"bufferView":4,"byteOffset":0},{"type":"VEC3","componentType":5126,"count":46,"bufferView":4,"byteOffset":12},{"type":"VEC3","componentType":5126,"count":46,"max":[0.11239956319332123,0.1118953749537468,0.011630028486251831],"min":[0.07129212468862534,0.0712922140955925,-0.01300536934286356],"bufferView":5,"byteOffset":0},{"type":"VEC3","componentType":5126,"count":46,"bufferView":5,"byteOffset":12},{"type":"VEC3","componentType":5126,"count":1162,"max":[0.13424180448055267,-0.060461677610874176,0.011135058477520943],"min":[0.12736552953720093,-0.0673365592956543,-0.01300536934286356],"bufferView":6,"byteOffset":0},{"type":"VEC3","componentType":5126,"count":1162,"bufferView":6,"byteOffset":12},{"type":"VEC2","componentType":5126,"count":1162,"bufferView":6,"byteOffset":24},{"type":"VEC3","componentType":5126,"count":1162,"max":[0.13424180448055267,0.06674538552761078,0.011135057546198368],"min":[0.12736552953720093,0.059870485216379166,-0.01300536934286356],"bufferView":7,"byteOffset":0},{"type":"VEC3","componentType":5126,"count":1162,"bufferView":7,"byteOffset":12},{"type":"VEC2","componentType":5126,"count":1162,"bufferView":7,"byteOffset":24},{"type":"VEC3","componentType":5126,"count":1172,"max":[-0.1263682246208191,0.06724681705236435,0.011133473366498947],"min":[-0.13424178957939148,0.05936851724982262,-0.01300536934286356],"bufferView":8,"byteOffset":0},{"type":"VEC3","componentType":5126,"count":1172,"bufferView":8,"byteOffset":12},{"type":"VEC2","componentType":5126,"count":1172,"bufferView":8,"byteOffset":24},{"type":"VEC3","componentType":5126,"count":1172,"max":[-0.1263682246208191,-0.059959713369607925,0.011133473366498947],"min":[-0.13424178957939148,-0.06783804297447205,-0.01300536934286356],"bufferView":9,"byteOffset":0},{"type":"VEC3","componentType":5126,"count":1172,"bufferView":9,"byteOffset":12},{"type":"VEC2","componentType":5126,"count":1172,"bufferView":9,"byteOffset":24},{"type":"VEC3","componentType":5126,"count":580,"max":[-0.014215965755283833,-0.037092745304107666,0.01116760354489088],"min":[-0.01821606233716011,-0.096280537545681,-0.01300536934286356],"bufferView":10,"byteOffset":0},{"type":"VEC3","componentType":5126,"count":580,"bufferView":10,"byteOffset":12},{"type":"VEC2","componentType":5126,"count":580,"bufferView":10,"byteOffset":24},{"type":"VEC3","componentType":5126,"count":580,"max":[0.016145950183272362,-0.03749088943004608,0.011167602613568306],"min":[0.01214580237865448,-0.09667877852916718,-0.01300536934286356],"bufferView":11,"byteOffset":0},{"type":"VEC3","componentType":5126,"count":580,"bufferView":11,"byteOffset":12},{"type":"VEC2","componentType":5126,"count":580,"bufferView":11,"byteOffset":24},{"type":"VEC3","componentType":5126,"count":580,"max":[-0.04457781836390495,-0.037291791290044785,0.011167595162987709],"min":[-0.04857797548174858,-0.09647966176271439,-0.01300536934286356],"bufferView":12,"byteOffset":0},{"type":"VEC3","componentType":5126,"count":580,"bufferView":12,"byteOffset":12},{"type":"VEC3","componentType":5126,"count":580,"max":[0.047926418483257294,-0.03749089315533638,0.011167602613568306],"min":[0.043926239013671875,-0.09667877852916718,-0.01300536934286356],"bufferView":13,"byteOffset":0},{"type":"VEC3","componentType":5126,"count":580,"bufferView":13,"byteOffset":12},{"type":"VEC3","componentType":5126,"count":2347,"max":[-0.06474633514881134,0.05135148763656616,0.012164846062660217],"min":[-0.13027289509773254,-0.01416472066193819,-0.01300536934286356],"bufferView":14,"byteOffset":0},{"type":"VEC3","componentType":5126,"count":2347,"bufferView":14,"byteOffset":12},{"type":"VEC2","componentType":5126,"count":2347,"bufferView":14,"byteOffset":24},{"type":"VEC3","componentType":5126,"count":1172,"max":[0.06097612529993057,0.10488591343164444,0.011330998502671719],"min":[0.04937963932752609,0.08998361974954605,-0.01300536934286356],"bufferView":15,"byteOffset":0},{"type":"VEC3","componentType":5126,"count":1172,"bufferView":15,"byteOffset":12},{"type":"VEC2","componentType":5126,"count":1172,"bufferView":15,"byteOffset":24},{"type":"VEC3","componentType":5126,"count":598,"max":[0.12072993814945221,0.06330769509077072,0.01300536934286356],"min":[-0.0575927197933197,-0.026131808757781982,-0.01300536934286356],"bufferView":16,"byteOffset":0},{"type":"VEC3","componentType":5126,"count":598,"bufferView":16,"byteOffset":12},{"type":"VEC2","componentType":5126,"count":598,"bufferView":16,"byteOffset":24},{"type":"VEC3","componentType":5126,"count":4611,"max":[-0.06389633566141129,0.052201490849256516,0.011100075207650661],"min":[-0.131122887134552,-0.015025461092591286,-0.01300536934286356],"bufferView":17,"byteOffset":0},{"type":"VEC3","componentType":5126,"count":4611,"bufferView":17,"byteOffset":12},{"type":"VEC2","componentType":5126,"count":4611,"bufferView":17,"byteOffset":24},{"type":"VEC3","componentType":5126,"count":1194,"max":[-0.012699362821877003,-0.035576146095991135,0.011114183813333511],"min":[-0.01973266340792179,-0.09779714047908783,-0.01300536934286356],"bufferView":18,"byteOffset":0},{"type":"VEC3","componentType":5126,"count":1194,"bufferView":18,"byteOffset":12},{"type":"VEC2","componentType":5126,"count":1194,"bufferView":18,"byteOffset":24},{"type":"VEC3","componentType":5126,"count":1194,"max":[0.017662551254034042,-0.03597429022192955,0.011114183813333511],"min":[0.0106292013078928,-0.098195381462574,-0.01300536934286356],"bufferView":19,"byteOffset":0},{"type":"VEC3","componentType":5126,"count":1194,"bufferView":19,"byteOffset":12},{"type":"VEC2","componentType":5126,"count":1194,"bufferView":19,"byteOffset":24},{"type":"VEC3","componentType":5126,"count":1194,"max":[-0.04306121543049812,-0.035775166004896164,0.01111418753862381],"min":[-0.05009457841515541,-0.09799627214670181,-0.01300536934286356],"bufferView":20,"byteOffset":0},{"type":"VEC3","componentType":5126,"count":1194,"bufferView":20,"byteOffset":12},{"type":"VEC3","componentType":5126,"count":1194,"max":[0.049443017691373825,-0.03597429022192955,0.011114183813333511],"min":[0.04240962117910385,-0.098195381462574,-0.01300536934286356],"bufferView":21,"byteOffset":0},{"type":"VEC3","componentType":5126,"count":1194,"bufferView":21,"byteOffset":12},{"type":"VEC2","componentType":5126,"count":1194,"bufferView":21,"byteOffset":24},{"type":"VEC3","componentType":5126,"count":4251,"max":[0.13963237404823303,0.11189538240432739,0.012348150834441185],"min":[-0.13963237404823303,-0.11189538240432739,-0.01300536934286356],"bufferView":22,"byteOffset":0},{"type":"VEC3","componentType":5126,"count":4251,"bufferView":22,"byteOffset":12},{"type":"VEC2","componentType":5126,"count":4251,"bufferView":22,"byteOffset":24}],"bufferViews":[{"buffer":0,"byteOffset":0,"byteLength":354936,"target":34963},{"buffer":0,"byteOffset":354936,"byteLength":1536,"byteStride":32,"target":34962},{"buffer":0,"byteOffset":356472,"byteLength":1472,"byteStride":32,"target":34962},{"buffer":0,"byteOffset":357944,"byteLength":1472,"byteStride":32,"target":34962},{"buffer":0,"byteOffset":359416,"byteLength":1104,"byteStride":24,"target":34962},{"buffer":0,"byteOffset":360520,"byteLength":1104,"byteStride":24,"target":34962},{"buffer":0,"byteOffset":361624,"byteLength":37184,"byteStride":32,"target":34962},{"buffer":0,"byteOffset":398808,"byteLength":37184,"byteStride":32,"target":34962},{"buffer":0,"byteOffset":435992,"byteLength":37504,"byteStride":32,"target":34962},{"buffer":0,"byteOffset":473496,"byteLength":37504,"byteStride":32,"target":34962},{"buffer":0,"byteOffset":511000,"byteLength":18560,"byteStride":32,"target":34962},{"buffer":0,"byteOffset":529560,"byteLength":18560,"byteStride":32,"target":34962},{"buffer":0,"byteOffset":548120,"byteLength":13920,"byteStride":24,"target":34962},{"buffer":0,"byteOffset":562040,"byteLength":13920,"byteStride":24,"target":34962},{"buffer":0,"byteOffset":575960,"byteLength":75104,"byteStride":32,"target":34962},{"buffer":0,"byteOffset":651064,"byteLength":37504,"byteStride":32,"target":34962},{"buffer":0,"byteOffset":688568,"byteLength":19136,"byteStride":32,"target":34962},{"buffer":0,"byteOffset":707704,"byteLength":147552,"byteStride":32,"target":34962},{"buffer":0,"byteOffset":855256,"byteLength":38208,"byteStride":32,"target":34962},{"buffer":0,"byteOffset":893464,"byteLength":38208,"byteStride":32,"target":34962},{"buffer":0,"byteOffset":931672,"byteLength":28656,"byteStride":24,"target":34962},{"buffer":0,"byteOffset":960328,"byteLength":38208,"byteStride":32,"target":34962},{"buffer":0,"byteOffset":998536,"byteLength":136032,"byteStride":32,"target":34962}],"samplers":[{"magFilter":9729,"minFilter":9729,"wrapS":10497,"wrapT":10497}],"textures":[{"source":0,"sampler":0},{"source":1,"sampler":0},{"source":2,"sampler":0}],"images":[{"name":"BaseColor","mimeType":"image/png","uri":"baseColor_1.png"},{"name":"BaseColor","mimeType":"image/png","uri":"baseColor_2.png"},{"name":"BaseColor","mimeType":"image/png","uri":"baseColor_3.png"}],"buffers":[{"uri":"ok.bin","byteLength":1134568}],"materials":[{"doubleSided":true,"pbrMetallicRoughness":{"baseColorFactor":[0.89453125,0.23046875,0.32421875,1],"roughnessFactor":0.4000000059604645,"metallicFactor":0}},{"doubleSided":true,"pbrMetallicRoughness":{"baseColorFactor":[0.19921875,0.19921875,0.19921875,1],"roughnessFactor":0.4000000059604645,"metallicFactor":0}},{"doubleSided":true,"pbrMetallicRoughness":{"baseColorFactor":[0,0,0,1],"roughnessFactor":0.4000000059604645,"metallicFactor":0}},{"doubleSided":true,"pbrMetallicRoughness":{"baseColorFactor":[0.30078125,0.30078125,0.30078125,1],"roughnessFactor":0.4000000059604645,"metallicFactor":0}},{"doubleSided":true,"pbrMetallicRoughness":{"baseColorFactor":[0.3984375,0.3984375,0.3984375,1],"roughnessFactor":0.4000000059604645,"metallicFactor":0}},{"doubleSided":true,"pbrMetallicRoughness":{"roughnessFactor":0.4000000059604645,"metallicFactor":0,"baseColorTexture":{"index":0}}},{"doubleSided":true,"pbrMetallicRoughness":{"roughnessFactor":0.4000000059604645,"metallicFactor":0,"baseColorTexture":{"index":1}}},{"doubleSided":true,"pbrMetallicRoughness":{"baseColorFactor":[0.7265625,0.7265625,0.7265625,1],"roughnessFactor":0.4000000059604645,"metallicFactor":0}},{"doubleSided":true,"pbrMetallicRoughness":{"roughnessFactor":0.4000000059604645,"metallicFactor":0,"baseColorTexture":{"index":2}}}],"meshes":[{"primitives":[{"attributes":{"NORMAL":18,"POSITION":17,"TEXCOORD_0":19},"mode":4,"material":0,"indices":0}]},{"primitives":[{"attributes":{"NORMAL":21,"POSITION":20,"TEXCOORD_0":22},"mode":4,"material":1,"indices":1}]},{"primitives":[{"attributes":{"NORMAL":24,"POSITION":23,"TEXCOORD_0":25},"mode":4,"material":1,"indices":2}]},{"primitives":[{"attributes":{"NORMAL":27,"POSITION":26,"TEXCOORD_0":25},"mode":4,"material":1,"indices":2}]},{"primitives":[{"attributes":{"NORMAL":29,"POSITION":28,"TEXCOORD_0":22},"mode":4,"material":1,"indices":1}]},{"primitives":[{"attributes":{"NORMAL":31,"POSITION":30,"TEXCOORD_0":32},"mode":4,"material":2,"indices":3}]},{"primitives":[{"attributes":{"NORMAL":34,"POSITION":33,"TEXCOORD_0":35},"mode":4,"material":2,"indices":4}]},{"primitives":[{"attributes":{"NORMAL":37,"POSITION":36,"TEXCOORD_0":38},"mode":4,"material":2,"indices":5}]},{"primitives":[{"attributes":{"NORMAL":40,"POSITION":39,"TEXCOORD_0":41},"mode":4,"material":2,"indices":6}]},{"primitives":[{"attributes":{"NORMAL":43,"POSITION":42,"TEXCOORD_0":44},"mode":4,"material":3,"indices":7}]},{"primitives":[{"attributes":{"NORMAL":46,"POSITION":45,"TEXCOORD_0":47},"mode":4,"material":3,"indices":8}]},{"primitives":[{"attributes":{"NORMAL":49,"POSITION":48,"TEXCOORD_0":47},"mode":4,"material":3,"indices":8}]},{"primitives":[{"attributes":{"NORMAL":51,"POSITION":50,"TEXCOORD_0":47},"mode":4,"material":3,"indices":8}]},{"primitives":[{"attributes":{"NORMAL":53,"POSITION":52,"TEXCOORD_0":54},"mode":4,"material":4,"indices":9}]},{"primitives":[{"attributes":{"NORMAL":56,"POSITION":55,"TEXCOORD_0":57},"mode":4,"material":5,"indices":10}]},{"primitives":[{"attributes":{"NORMAL":59,"POSITION":58,"TEXCOORD_0":60},"mode":4,"material":6,"indices":11}]},{"primitives":[{"attributes":{"NORMAL":62,"POSITION":61,"TEXCOORD_0":63},"mode":4,"material":3,"indices":12}]},{"primitives":[{"attributes":{"NORMAL":65,"POSITION":64,"TEXCOORD_0":66},"mode":4,"material":7,"indices":13}]},{"primitives":[{"attributes":{"NORMAL":68,"POSITION":67,"TEXCOORD_0":69},"mode":4,"material":7,"indices":14}]},{"primitives":[{"attributes":{"NORMAL":71,"POSITION":70,"TEXCOORD_0":69},"mode":4,"material":7,"indices":14}]},{"primitives":[{"attributes":{"NORMAL":73,"POSITION":72,"TEXCOORD_0":74},"mode":4,"material":7,"indices":15}]},{"primitives":[{"attributes":{"NORMAL":76,"POSITION":75,"TEXCOORD_0":77},"mode":4,"material":8,"indices":16}]}],"nodes":[{"mesh":0},{"mesh":1},{"mesh":2},{"mesh":3},{"mesh":4},{"mesh":5},{"mesh":6},{"mesh":7},{"mesh":8},{"mesh":9},{"mesh":10},{"mesh":11},{"mesh":12},{"mesh":13},{"mesh":14},{"mesh":15},{"mesh":16},{"mesh":17},{"mesh":18},{"mesh":19},{"mesh":20},{"mesh":21}],"scenes":[{"nodes":[0,1,2,3,4,5,6,7,8,9,10,11,12,13,14,15,16,17,18,19,20,21]}]}