{"asset":{"generator":"glTF-Transform v3.5.1","version":"2.0"},"accessors":[{"type":"SCALAR","componentType":5125,"count":4152,"bufferView":0,"byteOffset":0},{"type":"VEC3","componentType":5126,"count":1154,"max":[0.04002168029546738,0.1064138188958168,0.005083603784441948],"min":[-0.04002168029546738,-0.1064138188958168,-0.005083603784441948],"bufferView":1,"byteOffset":0},{"type":"VEC3","componentType":5126,"count":1154,"bufferView":1,"byteOffset":12},{"type":"VEC2","componentType":5126,"count":1154,"bufferView":1,"byteOffset":24}],"bufferViews":[{"buffer":0,"byteOffset":0,"byteLength":16608,"target":34963},{"buffer":0,"byteOffset":16608,"byteLength":36928,"byteStride":32,"target":34962}],"buffers":[{"uri":"ok.bin","byteLength":53536}],"materials":[{"doubleSided":true,"pbrMetallicRoughness":{"baseColorFactor":[0.75390625,0.75390625,0.75390625,1],"roughnessFactor":0.4000000059604645,"metallicFactor":0}}],"meshes":[{"primitives":[{"attributes":{"NORMAL":2,"POSITION":1,"TEXCOORD_0":3},"mode":4,"material":0,"indices":0}]}],"nodes":[{"mesh":0}],"scenes":[{"nodes":[0]}]}