<?xml version="1.0" encoding="utf-8"?>
<!-- Generator: Adobe Illustrator 27.8.0, SVG Export Plug-In . SVG Version: 6.00 Build 0)  -->
<svg version="1.1" baseProfile="basic" id="Layer_1"
	 xmlns="http://www.w3.org/2000/svg" xmlns:xlink="http://www.w3.org/1999/xlink" x="0px" y="0px" viewBox="0 0 125.5 68.8"
	 xml:space="preserve">
<g>
	<path d="M97.9,0.2c15.1,0,27.3,12.3,27.3,27.3c0,15.1-12,27.3-27.1,27.5c-11,0.2-20.5-6.2-25-15.4c-0.3-0.5-0.9-0.9-1.5-0.9h-4
		c-0.2,0-0.4,0.1-0.5,0.2l-0.8,0.9v6.6c0,0.4,0.3,0.7,0.7,0.7h3.9c0.7,0,1.3,0.6,1.3,1.3v7.7c0,0.8-0.7,1.5-1.5,1.5h-1.8
		c-1.3,0-1.4,0-2.1,0.9L60,67.6c-0.7,0.9-0.8,1-2,1H33.8c-0.5,0-1-0.4-1-1V65c0-0.5-0.2-1-0.6-1.4l-2.5-2.2
		c-0.4-0.4-0.9-0.6-1.4-0.6H11.5c-0.7,0-1.4-0.3-1.9-0.8l-8.8-8c-0.4-0.4-0.6-0.9-0.6-1.4v-9.3c0-0.7,0.6-1.3,1.3-1.3h2.2
		c0.8,0,1.1-0.2,1.5-0.6l16.9-18.3c0.5-0.6,0.8-1.3,0.8-2V7.8c0-0.7,0.6-1.3,1.3-1.3h2.5v1.3l0.7,0.7h7.9L36,7.8V6.5h43.6
		c0.5,0,1-0.2,1.4-0.5C85.7,2.4,91.5,0.2,97.9,0.2z M37.3,37c0.2-0.6-0.1-1.2-0.5-1.6l-4.2-3.8c-0.3-0.3-0.6-0.5-1.1-0.6h-4
		c-0.9,0-1.7,0.8-1.7,1.7c0,0.2,0,0.4,0.1,0.5c0.1,0.2,0.1,0.4,0.1,0.6c0,1-0.8,1.7-1.7,1.7h-0.2c-1.4-0.2-2.7,1.3-2.5,2.7v0.4
		c0,1-0.8,1.7-1.7,1.7h-0.2c-1.4-0.1-2.7,1.3-2.4,2.7v0.4c0,1-0.8,1.7-1.7,1.7c-0.4,0-0.7-0.1-1.2-0.1c-1.4,0-2.5,1.1-2.5,2.5
		c0,1.4,1.1,2.5,2.5,2.5h8.4c0.3,0,0.5-0.1,0.7-0.4l1.1-1.1c0.4-0.4,0.6-0.6,1.5-0.6h3.3c0.6,0,0.9-0.3,1.2-0.7l6.3-8.3
		c0.3-0.4,0.4-0.8,0.4-1.3V37z M61.4,27.9c0.6,0,1.1-0.5,1.1-1.1s-0.5-1.1-1.1-1.1H50.8c-0.6,0-1.1,0.5-1.1,1.1s0.5,1.1,1.1,1.1
		H61.4z M101.4,26.7c0.4-1.1-0.5-2.3-1.7-2.1l-4.2,0.6c-1.2,0.2-1.8,1.6-1,2.5l2.7,3.3c0.7,0.9,2.2,0.7,2.8-0.3L101.4,26.7z"/>
</g>
</svg>
