<?xml version="1.0" encoding="utf-8"?>
<!-- Generator: Adobe Illustrator 27.8.0, SVG Export Plug-In . SVG Version: 6.00 Build 0)  -->
<svg version="1.1" baseProfile="basic" id="Layer_1"
	 xmlns="http://www.w3.org/2000/svg" xmlns:xlink="http://www.w3.org/1999/xlink" x="0px" y="0px" viewBox="0 0 202 202"
	 xml:space="preserve">
<style type="text/css">
	.st0{fill:none;stroke:#979797;stroke-width:0.56;}
</style>
<g>
	<path class="st0" d="M45,45h112v112H45V45z M137.5,119.6V84.2h-8.7c-4.8,0-9.4,2.6-11.2,5.1c-1.8-2.6-6.4-5.1-11.2-5.1h-9.7
		c-4.8,0-9.4,2.6-11.2,5.1c-1.8-2.5-6.4-5.1-11.2-5.1h-8.7v35.5h8.7V92.9c3.3,0.2,7.2,2.5,7.2,7.5v19.3h8v-19.3
		c0-4.9,3.9-7.3,7.2-7.5v26.7h9.7V92.9c3.3,0.2,7.2,2.5,7.2,7.5v19.3h8v-19.3c0-4.9,3.9-7.3,7.2-7.5v26.7H137.5z"/>
</g>
</svg>
