<?xml version="1.0" encoding="utf-8"?>
<!-- Generator: Adobe Illustrator 27.8.0, SVG Export Plug-In . SVG Version: 6.00 Build 0)  -->
<svg version="1.1" id="Layer_1" xmlns="http://www.w3.org/2000/svg" xmlns:xlink="http://www.w3.org/1999/xlink" x="0px" y="0px"
	 viewBox="0 0 202 202" style="enable-background:new 0 0 202 202;" xml:space="preserve">
<style type="text/css">
	.st0{fill:none;stroke:#979797;stroke-width:0.56;}
</style>
<path class="st0" d="M157,45v112H45V45H157z M74.3,84.2h-8.7v35.5h8.7V92.9c3.3,0.2,7.2,2.5,7.2,7.5v19.3h8v-19.3
	c0-4.9,3.9-7.3,7.2-7.5v26.7h9.7V92.9c3.3,0.2,7.2,2.5,7.2,7.5v19.3h8v-19.3c0-4.9,3.9-7.3,7.2-7.5v26.7h8.7V84.2h-8.7
	c-4.8,0-9.4,2.6-11.2,5.1c-1.8-2.6-6.4-5.1-11.2-5.1h-9.7c-4.8,0-9.4,2.6-11.2,5.1C83.7,86.8,79.1,84.2,74.3,84.2z"/>
</svg>
