<?xml version="1.0" encoding="utf-8"?>
<!-- Generator: Adobe Illustrator 27.8.0, SVG Export Plug-In . SVG Version: 6.00 Build 0)  -->
<svg version="1.1" baseProfile="basic" id="Layer_1"
	 xmlns="http://www.w3.org/2000/svg" xmlns:xlink="http://www.w3.org/1999/xlink" x="0px" y="0px" viewBox="0 0 125.5 68.8"
	 xml:space="preserve">
<style type="text/css">
	.st0{fill:none;stroke:#000000;stroke-width:0.5;}
	.st1{fill:#CDD7E1;}
</style>
<path class="st0" d="M100.1,5.3C87.7,4,76.7,13.1,75.5,25.4C74.2,37.8,83.3,48.8,95.6,50c12.4,1.2,23.4-7.8,24.6-20.2
	S112.4,6.5,100.1,5.3z M93.2,47c-3.1-0.7-6.1-2.1-8.5-4.2c-2.4-2.1-4.2-4.7-5.3-7.6l6.5-2.5c0.7,1.9,1.9,3.5,3.4,4.8
	s3.4,2.2,5.4,2.7L93.2,47z M41.5,23.6h28.7c1.5,0,2.7-1.2,2.7-2.7v-8.1c0-1.5-1.2-2.7-2.7-2.7H41.5c-1.5,0-2.7,1.2-2.7,2.7v8.1
	C38.8,22.4,40,23.6,41.5,23.6z"/>
<path class="st0" d="M45.9,22.7c3.2,0,5.8-2.6,5.8-5.8s-2.6-5.8-5.8-5.8s-5.8,2.6-5.8,5.8S42.7,22.7,45.9,22.7z M66,22.7
	c3.2,0,5.8-2.6,5.8-5.8s-2.6-5.8-5.8-5.8c-3.2,0-5.8,2.6-5.8,5.8S62.8,22.7,66,22.7z"/>
<path class="st0" d="M47.5,18.7h-3.1c-0.7,0-1.1-0.7-0.8-1.3l1.6-2.6c0.3-0.6,1.2-0.6,1.5,0l1.6,2.6C48.6,18,48.2,18.7,47.5,18.7z
	 M68.5,18c-0.5-0.3-1.1-0.7-1.6-1c-0.1,0-0.1-0.2,0-0.2c0.5-0.3,1.1-0.7,1.6-1c0.4-0.3,0-0.9-0.4-0.7c-0.5,0.3-1,0.6-1.6,0.9
	c-0.1,0.1-0.2,0-0.2-0.1v-1.6c0-0.5-0.8-0.5-0.8,0V16c0,0.1-0.1,0.2-0.2,0.1c-0.5-0.3-1-0.6-1.6-0.9c-0.4-0.3-0.8,0.4-0.4,0.7
	c0.5,0.3,1.1,0.7,1.6,1c0.1,0,0.1,0.2,0,0.2c-0.5,0.3-1.1,0.7-1.6,1c-0.4,0.3,0,0.9,0.4,0.7c0.5-0.3,1-0.6,1.6-1
	c0.1,0,0.2,0,0.2,0.1v1.6c0,0.5,0.8,0.5,0.8,0v-1.6c0-0.1,0.1-0.2,0.2-0.1c0.5,0.3,1,0.6,1.6,1C68.5,18.9,68.9,18.2,68.5,18z
	 M77.1,14.4h0.3c1,0,1.9-0.8,2.1-1.8c0.2-1.2-0.6-2.3-1.8-2.4s-2.3,0.6-2.4,1.8C75.2,13.1,75.9,14.2,77.1,14.4z"/>
<path class="st1" d="M87.1,14.4l-0.2-0.3L87.1,14.4z M96.8,45.1v-0.4V45.1z"/>
<path d="M105.2,33.9c0.2,0,0.4-0.2,0.4-0.4s-0.2-0.4-0.4-0.4s-0.4,0.2-0.4,0.4S104.9,33.9,105.2,33.9z M89.5,32.4
	c0.2,0,0.4-0.2,0.4-0.4s-0.2-0.4-0.4-0.4s-0.4,0.2-0.4,0.4C89.1,32.2,89.3,32.4,89.5,32.4z M98.7,18.7c0.2,0,0.4-0.2,0.4-0.4
	s-0.2-0.4-0.4-0.4s-0.4,0.2-0.4,0.4C98.3,18.6,98.5,18.7,98.7,18.7z"/>
<path class="st0" d="M97.8,34.6c3.8,0,7-3.1,7-7c0-3.8-3.1-7-7-7c-3.8,0-7,3.1-7,7C90.9,31.5,94,34.6,97.8,34.6z"/>
</svg>
