{"asset":{"generator":"glTF-Transform v3.5.1","version":"2.0"},"accessors":[{"type":"SCALAR","componentType":5125,"count":43200,"bufferView":0,"byteOffset":0},{"type":"SCALAR","componentType":5125,"count":59730,"bufferView":0,"byteOffset":172800},{"type":"VEC3","componentType":5126,"count":8102,"max":[-0.010854882188141346,-0.034248631447553635,0.015571570955216885],"min":[-0.0665767565369606,-0.0899708941578865,-0.015571570955216885],"bufferView":1,"byteOffset":0},{"type":"VEC3","componentType":5126,"count":8102,"bufferView":1,"byteOffset":12},{"type":"VEC2","componentType":5126,"count":8102,"bufferView":1,"byteOffset":24},{"type":"VEC3","componentType":5126,"count":12731,"max":[0.09706073999404907,0.09706112742424011,0.008599520660936832],"min":[-0.09706073999404907,-0.09706112742424011,-0.008599520660936832],"bufferView":2,"byteOffset":0},{"type":"VEC3","componentType":5126,"count":12731,"bufferView":2,"byteOffset":12},{"type":"VEC2","componentType":5126,"count":12731,"bufferView":2,"byteOffset":24}],"bufferViews":[{"buffer":0,"byteOffset":0,"byteLength":411720,"target":34963},{"buffer":0,"byteOffset":411720,"byteLength":259264,"byteStride":32,"target":34962},{"buffer":0,"byteOffset":670984,"byteLength":407392,"byteStride":32,"target":34962}],"samplers":[{"magFilter":9729,"minFilter":9729,"wrapS":10497,"wrapT":10497}],"textures":[{"source":0,"sampler":0}],"images":[{"name":"BaseColor","mimeType":"image/png","uri":"baseColor.png"}],"buffers":[{"uri":"ok.bin","byteLength":1078376}],"materials":[{"doubleSided":true,"pbrMetallicRoughness":{"baseColorFactor":[0.62109375,0.62890625,0.640625,1],"roughnessFactor":0.4000000059604645,"metallicFactor":0}},{"doubleSided":true,"pbrMetallicRoughness":{"roughnessFactor":0.4000000059604645,"metallicFactor":0,"baseColorTexture":{"index":0}}}],"meshes":[{"primitives":[{"attributes":{"NORMAL":3,"POSITION":2,"TEXCOORD_0":4},"mode":4,"material":0,"indices":0}]},{"primitives":[{"attributes":{"NORMAL":6,"POSITION":5,"TEXCOORD_0":7},"mode":4,"material":1,"indices":1}]}],"nodes":[{"mesh":0},{"mesh":1}],"scenes":[{"nodes":[0,1]}]}