{"asset":{"generator":"glTF-Transform v3.5.1","version":"2.0"},"accessors":[{"type":"SCALAR","componentType":5125,"count":5802,"bufferView":0,"byteOffset":0},{"type":"SCALAR","componentType":5125,"count":6150,"bufferView":0,"byteOffset":23208},{"type":"SCALAR","componentType":5125,"count":8154,"bufferView":0,"byteOffset":47808},{"type":"SCALAR","componentType":5125,"count":10032,"bufferView":0,"byteOffset":80424},{"type":"SCALAR","componentType":5125,"count":19284,"bufferView":0,"byteOffset":120552},{"type":"SCALAR","componentType":5125,"count":45816,"bufferView":0,"byteOffset":197688},{"type":"VEC3","componentType":5126,"count":1170,"max":[0.12903431057929993,-0.017106004059314728,0.020258668810129166],"min":[-0.005705131683498621,-0.21186459064483643,-0.022666363045573235],"bufferView":1,"byteOffset":0},{"type":"VEC3","componentType":5126,"count":1170,"bufferView":1,"byteOffset":12},{"type":"VEC2","componentType":5126,"count":1170,"bufferView":1,"byteOffset":24},{"type":"VEC3","componentType":5126,"count":1219,"max":[0.060095638036727905,-0.017106005921959877,0.022666363045573235],"min":[-0.1404440850019455,-0.21186459064483643,-0.022666363045573235],"bufferView":2,"byteOffset":0},{"type":"VEC3","componentType":5126,"count":1219,"bufferView":2,"byteOffset":12},{"type":"VEC2","componentType":5126,"count":1219,"bufferView":2,"byteOffset":24},{"type":"VEC3","componentType":5126,"count":1738,"max":[0.0655873492360115,0.21186459064483643,0.01909932866692543],"min":[-0.07699184864759445,0.12547850608825684,-0.022666363045573235],"bufferView":3,"byteOffset":0},{"type":"VEC3","componentType":5126,"count":1738,"bufferView":3,"byteOffset":12},{"type":"VEC2","componentType":5126,"count":1738,"bufferView":3,"byteOffset":24},{"type":"VEC3","componentType":5126,"count":1954,"max":[0.1404440850019455,0.12547850608825684,0.02266579680144787],"min":[-0.14033842086791992,-0.017106007784605026,-0.022666363045573235],"bufferView":4,"byteOffset":0},{"type":"VEC3","componentType":5126,"count":1954,"bufferView":4,"byteOffset":12},{"type":"VEC2","componentType":5126,"count":1954,"bufferView":4,"byteOffset":24},{"type":"VEC3","componentType":5126,"count":3732,"max":[0.04634827747941017,0.19309937953948975,0.013727120123803616],"min":[0.04150502756237984,0.18825563788414001,-0.022666363045573235],"bufferView":5,"byteOffset":0},{"type":"VEC3","componentType":5126,"count":3732,"bufferView":5,"byteOffset":12},{"type":"VEC2","componentType":5126,"count":3732,"bufferView":5,"byteOffset":24},{"type":"VEC3","componentType":5126,"count":8736,"max":[0.04750043526291847,0.19425161182880402,0.013768712989985943],"min":[0.040352094918489456,0.18710316717624664,-0.022666363045573235],"bufferView":6,"byteOffset":0},{"type":"VEC3","componentType":5126,"count":8736,"bufferView":6,"byteOffset":12},{"type":"VEC2","componentType":5126,"count":8736,"bufferView":6,"byteOffset":24}],"bufferViews":[{"buffer":0,"byteOffset":0,"byteLength":380952,"target":34963},{"buffer":0,"byteOffset":380952,"byteLength":37440,"byteStride":32,"target":34962},{"buffer":0,"byteOffset":418392,"byteLength":39008,"byteStride":32,"target":34962},{"buffer":0,"byteOffset":457400,"byteLength":55616,"byteStride":32,"target":34962},{"buffer":0,"byteOffset":513016,"byteLength":62528,"byteStride":32,"target":34962},{"buffer":0,"byteOffset":575544,"byteLength":119424,"byteStride":32,"target":34962},{"buffer":0,"byteOffset":694968,"byteLength":279552,"byteStride":32,"target":34962}],"samplers":[{"magFilter":9729,"minFilter":9729,"wrapS":10497,"wrapT":10497}],"textures":[{"source":0,"sampler":0},{"source":1,"sampler":0}],"images":[{"name":"BaseColor","mimeType":"image/png","uri":"baseColor_1.png"},{"name":"BaseColor","mimeType":"image/png","uri":"baseColor_2.png"}],"buffers":[{"uri":"ok.bin","byteLength":974520}],"materials":[{"doubleSided":true,"pbrMetallicRoughness":{"roughnessFactor":0.4000000059604645,"metallicFactor":0,"baseColorTexture":{"index":0}}},{"doubleSided":true,"pbrMetallicRoughness":{"baseColorFactor":[0.19921875,0.19921875,0.19921875,1],"roughnessFactor":0.4000000059604645,"metallicFactor":0}},{"doubleSided":true,"pbrMetallicRoughness":{"roughnessFactor":0.4000000059604645,"metallicFactor":0,"baseColorTexture":{"index":1}}},{"doubleSided":true,"pbrMetallicRoughness":{"baseColorFactor":[0,0,0,1],"roughnessFactor":0.4000000059604645,"metallicFactor":0}},{"doubleSided":true,"pbrMetallicRoughness":{"baseColorFactor":[0.9999999403953552,0.5390625,0.1171875074505806,1],"roughnessFactor":0.4000000059604645,"metallicFactor":0}}],"meshes":[{"primitives":[{"attributes":{"NORMAL":7,"POSITION":6,"TEXCOORD_0":8},"mode":4,"material":0,"indices":0}]},{"primitives":[{"attributes":{"NORMAL":10,"POSITION":9,"TEXCOORD_0":11},"mode":4,"material":1,"indices":1}]},{"primitives":[{"attributes":{"NORMAL":13,"POSITION":12,"TEXCOORD_0":14},"mode":4,"material":1,"indices":2}]},{"primitives":[{"attributes":{"NORMAL":16,"POSITION":15,"TEXCOORD_0":17},"mode":4,"material":2,"indices":3}]},{"primitives":[{"attributes":{"NORMAL":19,"POSITION":18,"TEXCOORD_0":20},"mode":4,"material":3,"indices":4}]},{"primitives":[{"attributes":{"NORMAL":22,"POSITION":21,"TEXCOORD_0":23},"mode":4,"material":4,"indices":5}]}],"nodes":[{"mesh":0},{"mesh":1},{"mesh":2},{"mesh":3},{"mesh":4},{"mesh":5}],"scenes":[{"nodes":[0,1,2,3,4,5]}]}