{"asset":{"generator":"glTF-Transform v3.5.1","version":"2.0"},"accessors":[{"type":"SCALAR","componentType":5125,"count":504,"bufferView":0,"byteOffset":0},{"type":"SCALAR","componentType":5125,"count":1920,"bufferView":0,"byteOffset":2016},{"type":"SCALAR","componentType":5125,"count":5964,"bufferView":0,"byteOffset":9696},{"type":"SCALAR","componentType":5125,"count":15864,"bufferView":0,"byteOffset":33552},{"type":"SCALAR","componentType":5125,"count":7098,"bufferView":0,"byteOffset":97008},{"type":"VEC3","componentType":5126,"count":182,"max":[0.19442635774612427,0.09705439954996109,0.01628164015710354],"min":[-0.19442635774612427,-0.0970543920993805,-0.01628164015710354],"bufferView":1,"byteOffset":0},{"type":"VEC3","componentType":5126,"count":182,"bufferView":1,"byteOffset":12},{"type":"VEC2","componentType":5126,"count":182,"bufferView":1,"byteOffset":24},{"type":"VEC3","componentType":5126,"count":512,"max":[0.1944262683391571,-0.07323867082595825,0.014443100430071354],"min":[-0.19442622363567352,-0.1382955014705658,-0.01628164015710354],"bufferView":2,"byteOffset":0},{"type":"VEC3","componentType":5126,"count":512,"bufferView":2,"byteOffset":12},{"type":"VEC2","componentType":5126,"count":512,"bufferView":2,"byteOffset":24},{"type":"VEC3","componentType":5126,"count":1588,"max":[-0.11362148076295853,-0.12264843285083771,0.013022582046687603],"min":[-0.11953559517860413,-0.12856249511241913,-0.01628164015710354],"bufferView":3,"byteOffset":0},{"type":"VEC3","componentType":5126,"count":1588,"bufferView":3,"byteOffset":12},{"type":"VEC2","componentType":5126,"count":1588,"bufferView":3,"byteOffset":24},{"type":"VEC3","componentType":5126,"count":1588,"max":[0.11953559517860413,0.12856242060661316,0.013021964579820633],"min":[0.11362159252166748,0.1226484626531601,-0.01628164015710354],"bufferView":4,"byteOffset":0},{"type":"VEC3","componentType":5126,"count":1588,"bufferView":4,"byteOffset":12},{"type":"VEC3","componentType":5126,"count":1588,"max":[-0.11362148821353912,0.1264657974243164,0.013022374361753464],"min":[-0.11953559517860413,0.12055173516273499,-0.01628164015710354],"bufferView":5,"byteOffset":0},{"type":"VEC3","componentType":5126,"count":1588,"bufferView":5,"byteOffset":12},{"type":"VEC3","componentType":5126,"count":4012,"max":[0.12094325572252274,0.1299700140953064,0.013040648773312569],"min":[0.11221396178007126,0.12124072015285492,-0.01628164015710354],"bufferView":6,"byteOffset":0},{"type":"VEC3","componentType":5126,"count":4012,"bufferView":6,"byteOffset":12},{"type":"VEC2","componentType":5126,"count":4012,"bufferView":6,"byteOffset":24},{"type":"VEC3","componentType":5126,"count":4012,"max":[-0.1122138574719429,-0.12124070525169373,0.013040920719504356],"min":[-0.12094323337078094,-0.12997008860111237,-0.01628164015710354],"bufferView":7,"byteOffset":0},{"type":"VEC3","componentType":5126,"count":4012,"bufferView":7,"byteOffset":12},{"type":"VEC3","componentType":5126,"count":4012,"max":[-0.1122138723731041,0.1278735101222992,0.013040833175182343],"min":[-0.12094322592020035,0.11914416402578354,-0.01628164015710354],"bufferView":8,"byteOffset":0},{"type":"VEC3","componentType":5126,"count":4012,"bufferView":8,"byteOffset":12},{"type":"VEC3","componentType":5126,"count":1759,"max":[0.1944262534379959,0.1382955014705658,0.014169817790389061],"min":[-0.19442622363567352,0.07323867082595825,-0.01628164015710354],"bufferView":9,"byteOffset":0},{"type":"VEC3","componentType":5126,"count":1759,"bufferView":9,"byteOffset":12},{"type":"VEC2","componentType":5126,"count":1759,"bufferView":9,"byteOffset":24}],"bufferViews":[{"buffer":0,"byteOffset":0,"byteLength":125400,"target":34963},{"buffer":0,"byteOffset":125400,"byteLength":5824,"byteStride":32,"target":34962},{"buffer":0,"byteOffset":131224,"byteLength":16384,"byteStride":32,"target":34962},{"buffer":0,"byteOffset":147608,"byteLength":50816,"byteStride":32,"target":34962},{"buffer":0,"byteOffset":198424,"byteLength":38112,"byteStride":24,"target":34962},{"buffer":0,"byteOffset":236536,"byteLength":38112,"byteStride":24,"target":34962},{"buffer":0,"byteOffset":274648,"byteLength":128384,"byteStride":32,"target":34962},{"buffer":0,"byteOffset":403032,"byteLength":96288,"byteStride":24,"target":34962},{"buffer":0,"byteOffset":499320,"byteLength":96288,"byteStride":24,"target":34962},{"buffer":0,"byteOffset":595608,"byteLength":56288,"byteStride":32,"target":34962}],"samplers":[{"magFilter":9729,"minFilter":9729,"wrapS":10497,"wrapT":10497}],"textures":[{"source":0,"sampler":0},{"source":1,"sampler":0}],"images":[{"name":"BaseColor","mimeType":"image/png","uri":"baseColor_1.png"},{"name":"BaseColor","mimeType":"image/png","uri":"baseColor_2.png"}],"buffers":[{"uri":"ok.bin","byteLength":651896}],"materials":[{"doubleSided":true,"pbrMetallicRoughness":{"baseColorFactor":[0.1015625074505806,0.1015625074505806,0.1015625074505806,1],"roughnessFactor":0.4000000059604645,"metallicFactor":0}},{"doubleSided":true,"pbrMetallicRoughness":{"roughnessFactor":0.4000000059604645,"metallicFactor":0,"baseColorTexture":{"index":0}}},{"doubleSided":true,"pbrMetallicRoughness":{"baseColorFactor":[0,0,0,1],"roughnessFactor":0.4000000059604645,"metallicFactor":0}},{"doubleSided":true,"pbrMetallicRoughness":{"baseColorFactor":[0.9999999403953552,0.5390625,0.1171875074505806,1],"roughnessFactor":0.4000000059604645,"metallicFactor":0}},{"doubleSided":true,"pbrMetallicRoughness":{"roughnessFactor":0.4000000059604645,"metallicFactor":0,"baseColorTexture":{"index":1}}}],"meshes":[{"primitives":[{"attributes":{"NORMAL":6,"POSITION":5,"TEXCOORD_0":7},"mode":4,"material":0,"indices":0}]},{"primitives":[{"attributes":{"NORMAL":9,"POSITION":8,"TEXCOORD_0":10},"mode":4,"material":1,"indices":1}]},{"primitives":[{"attributes":{"NORMAL":12,"POSITION":11,"TEXCOORD_0":13},"mode":4,"material":2,"indices":2}]},{"primitives":[{"attributes":{"NORMAL":15,"POSITION":14,"TEXCOORD_0":13},"mode":4,"material":2,"indices":2}]},{"primitives":[{"attributes":{"NORMAL":17,"POSITION":16,"TEXCOORD_0":13},"mode":4,"material":2,"indices":2}]},{"primitives":[{"attributes":{"NORMAL":19,"POSITION":18,"TEXCOORD_0":20},"mode":4,"material":3,"indices":3}]},{"primitives":[{"attributes":{"NORMAL":22,"POSITION":21,"TEXCOORD_0":20},"mode":4,"material":3,"indices":3}]},{"primitives":[{"attributes":{"NORMAL":24,"POSITION":23,"TEXCOORD_0":20},"mode":4,"material":3,"indices":3}]},{"primitives":[{"attributes":{"NORMAL":26,"POSITION":25,"TEXCOORD_0":27},"mode":4,"material":4,"indices":4}]}],"nodes":[{"mesh":0},{"mesh":1},{"mesh":2},{"mesh":3},{"mesh":4},{"mesh":5},{"mesh":6},{"mesh":7},{"mesh":8}],"scenes":[{"nodes":[0,1,2,3,4,5,6,7,8]}]}