{"asset":{"generator":"glTF-Transform v3.5.1","version":"2.0"},"accessors":[{"type":"SCALAR","componentType":5125,"count":9060,"bufferView":0,"byteOffset":0},{"type":"SCALAR","componentType":5125,"count":1368,"bufferView":0,"byteOffset":36240},{"type":"VEC3","componentType":5126,"count":2288,"max":[-0.006239989772439003,0.009328369051218033,0.008775834925472736],"min":[-0.008946435526013374,0.006621825974434614,-0.009422858245670795],"bufferView":1,"byteOffset":0},{"type":"VEC3","componentType":5126,"count":2288,"bufferView":1,"byteOffset":12},{"type":"VEC2","componentType":5126,"count":2288,"bufferView":1,"byteOffset":24},{"type":"VEC3","componentType":5126,"count":362,"max":[0.05624194070696831,0.01672680675983429,0.009422858245670795],"min":[-0.05624194070696831,-0.01672680675983429,-0.009422858245670795],"bufferView":2,"byteOffset":0},{"type":"VEC3","componentType":5126,"count":362,"bufferView":2,"byteOffset":12},{"type":"VEC2","componentType":5126,"count":362,"bufferView":2,"byteOffset":24}],"bufferViews":[{"buffer":0,"byteOffset":0,"byteLength":41712,"target":34963},{"buffer":0,"byteOffset":41712,"byteLength":73216,"byteStride":32,"target":34962},{"buffer":0,"byteOffset":114928,"byteLength":11584,"byteStride":32,"target":34962}],"samplers":[{"magFilter":9729,"minFilter":9729,"wrapS":10497,"wrapT":10497}],"textures":[{"source":0,"sampler":0}],"images":[{"name":"BaseColor","mimeType":"image/png","uri":"baseColor.png"}],"buffers":[{"uri":"ok.bin","byteLength":126512}],"materials":[{"doubleSided":true,"pbrMetallicRoughness":{"baseColorFactor":[0,0.9999999403953552,0,1],"roughnessFactor":0.4000000059604645,"metallicFactor":0}},{"doubleSided":true,"pbrMetallicRoughness":{"roughnessFactor":0.4000000059604645,"metallicFactor":0,"baseColorTexture":{"index":0}}}],"meshes":[{"primitives":[{"attributes":{"NORMAL":3,"POSITION":2,"TEXCOORD_0":4},"mode":4,"material":0,"indices":0}]},{"primitives":[{"attributes":{"NORMAL":6,"POSITION":5,"TEXCOORD_0":7},"mode":4,"material":1,"indices":1}]}],"nodes":[{"mesh":0},{"mesh":1}],"scenes":[{"nodes":[0,1]}]}